<svg width="55" height="55" viewBox="0 0 55 55" fill="none" xmlns="http://www.w3.org/2000/svg">
<g filter="url(#filter0_d_77_714)">
<path fill-rule="evenodd" clip-rule="evenodd" d="M50.7687 27.3734C50.7687 40.2841 40.3025 50.7503 27.3925 50.7503C14.4812 50.7503 4.01562 40.2841 4.01562 27.3734C4.01562 14.4628 14.4819 3.99718 27.3925 3.99718C40.3025 3.99718 50.7687 14.4634 50.7687 27.3734ZM26.1531 21.8732V36.9982H28.8156V18.9982H26.1531L22.7656 21.0232V23.9357L26.1531 21.8732Z" fill="url(#paint0_linear_77_714)" fill-opacity="0.8"/>
</g>
<path d="M27.3822 50.2662C40.0234 50.2662 50.2716 40.0187 50.2716 27.3768C50.2716 14.7355 40.0241 4.48741 27.3828 4.48741C14.7403 4.48741 4.49219 14.7355 4.49219 27.3768C4.49219 40.0187 14.7403 50.2662 27.3822 50.2662Z" stroke="url(#paint1_linear_77_714)" stroke-opacity="0.2" stroke-width="0.97375"/>
<defs>
<filter id="filter0_d_77_714" x="4.01562" y="3.99718" width="46.7532" height="48.7013" filterUnits="userSpaceOnUse" color-interpolation-filters="sRGB">
<feFlood flood-opacity="0" result="BackgroundImageFix"/>
<feColorMatrix in="SourceAlpha" type="matrix" values="0 0 0 0 0 0 0 0 0 0 0 0 0 0 0 0 0 0 127 0" result="hardAlpha"/>
<feOffset dy="1.94813"/>
<feComposite in2="hardAlpha" operator="out"/>
<feColorMatrix type="matrix" values="0 0 0 0 1 0 0 0 0 1 0 0 0 0 1 0 0 0 0.1 0"/>
<feBlend mode="normal" in2="BackgroundImageFix" result="effect1_dropShadow_77_714"/>
<feBlend mode="normal" in="SourceGraphic" in2="effect1_dropShadow_77_714" result="shape"/>
</filter>
<linearGradient id="paint0_linear_77_714" x1="27.3925" y1="3.99718" x2="27.3925" y2="50.7503" gradientUnits="userSpaceOnUse">
<stop stop-color="#6C38FF"/>
<stop offset="1" stop-color="#B59AFF"/>
</linearGradient>
<linearGradient id="paint1_linear_77_714" x1="27.3822" y1="4.00054" x2="27.3822" y2="50.7537" gradientUnits="userSpaceOnUse">
<stop stop-color="white"/>
<stop offset="1" stop-color="white" stop-opacity="0"/>
</linearGradient>
</defs>
</svg>
