<svg width="55" height="55" viewBox="0 0 55 55" fill="none" xmlns="http://www.w3.org/2000/svg">
<g filter="url(#filter0_d_77_732)">
<path fill-rule="evenodd" clip-rule="evenodd" d="M50.7531 27.3725C50.7531 40.2831 40.2869 50.7493 27.3769 50.7493C14.4656 50.7493 4 40.2831 4 27.3725C4 14.4618 14.4663 3.9962 27.3769 3.9962C40.2869 3.9962 50.7531 14.4625 50.7531 27.3725ZM21.2547 34.6614L21.2422 36.9864H33.4172V34.4989H25.2825L30.4922 29.8489C31.1422 29.2739 31.6839 28.7406 32.1172 28.2489C32.5505 27.7572 32.8755 27.2239 33.0922 26.6489C33.3089 26.0739 33.4172 25.3739 33.4172 24.5489C33.4172 23.4072 33.1547 22.3906 32.6297 21.4989C32.113 20.6072 31.4047 19.9072 30.5047 19.3989C29.6047 18.8822 28.588 18.6239 27.4547 18.6239C26.263 18.6239 25.2047 18.8739 24.2797 19.3739C23.3547 19.8656 22.6255 20.5531 22.0922 21.4364C21.5672 22.3114 21.3047 23.3322 21.3047 24.4989H23.9797C23.9714 23.8989 24.113 23.3406 24.4047 22.8239C24.6964 22.3072 25.1005 21.8947 25.6172 21.5864C26.1422 21.2697 26.738 21.1114 27.4047 21.1114C28.0547 21.1114 28.6297 21.2614 29.1297 21.5614C29.6297 21.8614 30.0214 22.2697 30.3047 22.7864C30.588 23.2947 30.7297 23.8697 30.7297 24.5114C30.7297 25.0197 30.613 25.5281 30.3797 26.0364C30.1547 26.5447 29.7255 27.0781 29.0922 27.6364L21.2547 34.6614Z" fill="url(#paint0_linear_77_732)" fill-opacity="0.8"/>
</g>
<path d="M27.3822 50.2647C40.0234 50.2647 50.2716 40.0172 50.2716 27.3753C50.2716 14.7341 40.0241 4.48595 27.3828 4.48595C14.7403 4.48595 4.49219 14.7341 4.49219 27.3753C4.49219 40.0172 14.7403 50.2647 27.3822 50.2647Z" stroke="url(#paint1_linear_77_732)" stroke-opacity="0.2" stroke-width="0.97375"/>
<defs>
<filter id="filter0_d_77_732" x="4" y="3.9962" width="46.7532" height="48.7013" filterUnits="userSpaceOnUse" color-interpolation-filters="sRGB">
<feFlood flood-opacity="0" result="BackgroundImageFix"/>
<feColorMatrix in="SourceAlpha" type="matrix" values="0 0 0 0 0 0 0 0 0 0 0 0 0 0 0 0 0 0 127 0" result="hardAlpha"/>
<feOffset dy="1.94813"/>
<feComposite in2="hardAlpha" operator="out"/>
<feColorMatrix type="matrix" values="0 0 0 0 1 0 0 0 0 1 0 0 0 0 1 0 0 0 0.1 0"/>
<feBlend mode="normal" in2="BackgroundImageFix" result="effect1_dropShadow_77_732"/>
<feBlend mode="normal" in="SourceGraphic" in2="effect1_dropShadow_77_732" result="shape"/>
</filter>
<linearGradient id="paint0_linear_77_732" x1="27.3769" y1="3.9962" x2="27.3769" y2="50.7493" gradientUnits="userSpaceOnUse">
<stop stop-color="#6C38FF"/>
<stop offset="1" stop-color="#B59AFF"/>
</linearGradient>
<linearGradient id="paint1_linear_77_732" x1="27.3822" y1="3.99907" x2="27.3822" y2="50.7522" gradientUnits="userSpaceOnUse">
<stop stop-color="white"/>
<stop offset="1" stop-color="white" stop-opacity="0"/>
</linearGradient>
</defs>
</svg>
