<svg width="55" height="55" viewBox="0 0 55 55" fill="none" xmlns="http://www.w3.org/2000/svg">
<g filter="url(#filter0_d_77_746)">
<path fill-rule="evenodd" clip-rule="evenodd" d="M50.7687 27.3734C50.7687 40.2841 40.3025 50.7503 27.3925 50.7503C14.4812 50.7503 4.01562 40.2841 4.01562 27.3734C4.01562 14.4628 14.4819 3.99718 27.3925 3.99718C40.3025 3.99718 50.7687 14.4634 50.7687 27.3734ZM24.2906 36.8357C25.074 37.169 25.9115 37.3357 26.8031 37.3357C27.9281 37.3357 28.9406 37.0815 29.8406 36.5732C30.749 36.0648 31.4698 35.3648 32.0031 34.4732C32.5448 33.5815 32.8156 32.5607 32.8156 31.4107C32.8156 30.344 32.5865 29.3815 32.1281 28.5232C31.6781 27.6565 31.0365 26.9732 30.2031 26.4732C29.5868 26.0972 28.8884 25.8602 28.1079 25.7623L32.5531 21.4857V18.9982H21.7281V21.4857H29.3546L23.8531 26.3482L25.0781 28.4107C25.3365 28.2773 25.6115 28.169 25.9031 28.0857C26.2031 28.0023 26.4948 27.9607 26.7781 27.9607C27.7781 27.9607 28.5865 28.2857 29.2031 28.9357C29.8281 29.5857 30.1406 30.4107 30.1406 31.4107C30.1406 32.0773 29.999 32.669 29.7156 33.1857C29.4323 33.694 29.0406 34.0982 28.5406 34.3982C28.0406 34.6982 27.4615 34.8523 26.8031 34.8607C26.0698 34.869 25.4031 34.669 24.8031 34.2607C24.2031 33.844 23.7823 33.2482 23.5406 32.4732L21.0156 33.1732C21.274 34.0232 21.6865 34.7607 22.2531 35.3857C22.8281 36.0107 23.5073 36.494 24.2906 36.8357Z" fill="url(#paint0_linear_77_746)" fill-opacity="0.8"/>
</g>
<path d="M27.3822 50.2662C40.0234 50.2662 50.2716 40.0187 50.2716 27.3768C50.2716 14.7355 40.0241 4.48741 27.3828 4.48741C14.7403 4.48741 4.49219 14.7355 4.49219 27.3768C4.49219 40.0187 14.7403 50.2662 27.3822 50.2662Z" stroke="url(#paint1_linear_77_746)" stroke-opacity="0.2" stroke-width="0.97375"/>
<defs>
<filter id="filter0_d_77_746" x="4.01562" y="3.99718" width="46.7532" height="48.7013" filterUnits="userSpaceOnUse" color-interpolation-filters="sRGB">
<feFlood flood-opacity="0" result="BackgroundImageFix"/>
<feColorMatrix in="SourceAlpha" type="matrix" values="0 0 0 0 0 0 0 0 0 0 0 0 0 0 0 0 0 0 127 0" result="hardAlpha"/>
<feOffset dy="1.94813"/>
<feComposite in2="hardAlpha" operator="out"/>
<feColorMatrix type="matrix" values="0 0 0 0 1 0 0 0 0 1 0 0 0 0 1 0 0 0 0.1 0"/>
<feBlend mode="normal" in2="BackgroundImageFix" result="effect1_dropShadow_77_746"/>
<feBlend mode="normal" in="SourceGraphic" in2="effect1_dropShadow_77_746" result="shape"/>
</filter>
<linearGradient id="paint0_linear_77_746" x1="27.3925" y1="3.99718" x2="27.3925" y2="50.7503" gradientUnits="userSpaceOnUse">
<stop stop-color="#6C38FF"/>
<stop offset="1" stop-color="#B59AFF"/>
</linearGradient>
<linearGradient id="paint1_linear_77_746" x1="27.3822" y1="4.00054" x2="27.3822" y2="50.7537" gradientUnits="userSpaceOnUse">
<stop stop-color="white"/>
<stop offset="1" stop-color="white" stop-opacity="0"/>
</linearGradient>
</defs>
</svg>
