<svg width="165" height="199" viewBox="0 0 165 199" fill="none" xmlns="http://www.w3.org/2000/svg">
<g clip-path="url(#clip0_21_454)">
<g opacity="0.4" filter="url(#filter0_f_21_454)">
<path d="M86.5781 40.3006C86.5782 40.0397 86.6819 39.7895 86.8664 39.6051C87.0509 39.4206 87.301 39.3169 87.5619 39.3168H91.0052C91.1367 39.3131 91.2676 39.3358 91.3902 39.3836C91.5128 39.4314 91.6246 39.5032 91.7189 39.595C91.8132 39.6867 91.8882 39.7964 91.9394 39.9176C91.9906 40.0388 92.017 40.169 92.017 40.3006C92.017 40.4322 91.9906 40.5624 91.9394 40.6836C91.8882 40.8048 91.8132 40.9145 91.7189 41.0062C91.6246 41.0979 91.5128 41.1698 91.3902 41.2176C91.2676 41.2654 91.1367 41.2881 91.0052 41.2844H87.5619C87.301 41.2844 87.0508 41.1807 86.8663 40.9962C86.6818 40.8117 86.5781 40.5615 86.5781 40.3006V40.3006Z" stroke="url(#paint0_linear_21_454)" stroke-width="6.98823"/>
<path d="M78.2392 154.413C78.2392 154.957 77.7989 155.398 77.2554 155.398H73.8121C73.5511 155.398 73.3009 155.294 73.1163 155.109C72.9318 154.925 72.8281 154.675 72.8281 154.414C72.8281 154.153 72.9318 153.902 73.1163 153.718C73.3009 153.533 73.5511 153.43 73.8121 153.43H77.2554C77.7989 153.43 78.2392 153.87 78.2392 154.413Z" stroke="url(#paint1_linear_21_454)" stroke-width="6.98823"/>
<path d="M82.1641 44.2338C82.1642 43.9729 82.2678 43.7227 82.4523 43.5383C82.6368 43.3538 82.887 43.2501 83.1478 43.25H94.9537C95.2098 43.2572 95.4531 43.364 95.6317 43.5477C95.8103 43.7314 95.9102 43.9776 95.9102 44.2338C95.9102 44.49 95.8103 44.7362 95.6317 44.9199C95.4531 45.1036 95.2098 45.2104 94.9537 45.2176H83.1478C82.8869 45.2176 82.6367 45.1139 82.4522 44.9294C82.2677 44.7449 82.1641 44.4947 82.1641 44.2338V44.2338Z" stroke="url(#paint2_linear_21_454)" stroke-width="6.98823"/>
<path d="M82.648 150.484C82.648 151.027 82.2078 151.468 81.6642 151.468H69.8588C69.5979 151.468 69.3476 151.364 69.1631 151.179C68.9786 150.995 68.875 150.745 68.875 150.484C68.875 150.223 68.9786 149.973 69.1631 149.788C69.3476 149.604 69.5979 149.5 69.8588 149.5H81.6642C82.2078 149.5 82.648 149.941 82.648 150.484V150.484Z" stroke="url(#paint3_linear_21_454)" stroke-width="6.98823"/>
<path d="M79.2266 48.1674C79.2267 47.9065 79.3303 47.6563 79.5148 47.4718C79.6993 47.2874 79.9495 47.1837 80.2103 47.1836H94.9676C95.2237 47.1908 95.4669 47.2976 95.6455 47.4813C95.8242 47.665 95.9241 47.9111 95.9241 48.1674C95.9241 48.4236 95.8242 48.6697 95.6455 48.8535C95.4669 49.0372 95.2237 49.144 94.9676 49.1512H80.2103C79.9494 49.1512 79.6992 49.0475 79.5147 48.863C79.3302 48.6785 79.2266 48.4283 79.2266 48.1674V48.1674Z" stroke="url(#paint4_linear_21_454)" stroke-width="6.98823"/>
<path d="M85.5994 146.55C85.5994 147.094 85.1591 147.534 84.6156 147.534H69.8588C69.5979 147.534 69.3476 147.43 69.1631 147.246C68.9786 147.061 68.875 146.811 68.875 146.55C68.875 146.289 68.9786 146.039 69.1631 145.855C69.3476 145.67 69.5979 145.566 69.8588 145.566H84.6156C85.1591 145.566 85.5994 146.007 85.5994 146.55Z" stroke="url(#paint5_linear_21_454)" stroke-width="6.98823"/>
<path d="M76.2656 52.1088C76.2657 51.8479 76.3694 51.5977 76.5539 51.4133C76.7384 51.2288 76.9885 51.1251 77.2494 51.125H94.958C95.2141 51.1322 95.4574 51.239 95.636 51.4227C95.8146 51.6064 95.9145 51.8526 95.9145 52.1088C95.9145 52.365 95.8146 52.6112 95.636 52.7949C95.4574 52.9786 95.2141 53.0854 94.958 53.0926H77.2494C76.9885 53.0926 76.7383 52.9889 76.5538 52.8044C76.3693 52.6199 76.2656 52.3697 76.2656 52.1088V52.1088Z" stroke="url(#paint6_linear_21_454)" stroke-width="6.98823"/>
<path d="M88.5508 142.617C88.5508 143.16 88.1105 143.6 87.567 143.6H69.8588C69.5979 143.6 69.3476 143.497 69.1631 143.312C68.9786 143.128 68.875 142.878 68.875 142.617C68.875 142.356 68.9786 142.105 69.1631 141.921C69.3476 141.736 69.5979 141.633 69.8588 141.633H87.567C88.1105 141.633 88.5508 142.073 88.5508 142.617Z" stroke="url(#paint7_linear_21_454)" stroke-width="6.98823"/>
<path d="M73.3047 56.0428C73.3047 55.4992 73.7449 55.0586 74.2885 55.0586H94.9484C95.206 55.0637 95.4513 55.1696 95.6317 55.3536C95.812 55.5376 95.913 55.7849 95.913 56.0426C95.913 56.3002 95.812 56.5476 95.6317 56.7315C95.4513 56.9155 95.206 57.0214 94.9484 57.0266H74.2885C74.0276 57.0266 73.7773 56.9229 73.5928 56.7384C73.4083 56.5539 73.3047 56.3037 73.3047 56.0428V56.0428Z" stroke="url(#paint8_linear_21_454)" stroke-width="6.98823"/>
<path d="M91.5025 138.683C91.5025 139.227 91.0619 139.667 90.5183 139.667H69.8588C69.5979 139.667 69.3476 139.563 69.1631 139.379C68.9786 139.194 68.875 138.944 68.875 138.683C68.875 138.422 68.9786 138.172 69.1631 137.987C69.3476 137.803 69.5979 137.699 69.8588 137.699H90.5183C91.0619 137.699 91.5025 138.14 91.5025 138.683Z" stroke="url(#paint9_linear_21_454)" stroke-width="6.98823"/>
<path d="M70.3672 59.976C70.3672 59.4324 70.8074 58.9922 71.351 58.9922H94.9623C95.2232 58.9922 95.4734 59.0958 95.6579 59.2803C95.8424 59.4648 95.9461 59.7151 95.9461 59.976C95.9461 60.2369 95.8424 60.4871 95.6579 60.6716C95.4734 60.8561 95.2232 60.9598 94.9623 60.9598H71.351C71.0901 60.9598 70.8398 60.8561 70.6553 60.6716C70.4708 60.4871 70.3672 60.2369 70.3672 59.976V59.976Z" stroke="url(#paint10_linear_21_454)" stroke-width="6.98823"/>
<path d="M94.4539 134.749C94.4538 135.01 94.3501 135.26 94.1656 135.445C93.9812 135.629 93.731 135.733 93.4701 135.733H69.8588C69.5979 135.733 69.3476 135.63 69.1631 135.445C68.9786 135.261 68.875 135.01 68.875 134.749C68.875 134.488 68.9786 134.238 69.1631 134.054C69.3476 133.869 69.5979 133.766 69.8588 133.766H93.4701C93.731 133.766 93.9812 133.869 94.1657 134.054C94.3502 134.238 94.4539 134.488 94.4539 134.749V134.749Z" stroke="url(#paint11_linear_21_454)" stroke-width="6.98823"/>
<path d="M66.9141 63.9096C66.9141 63.366 67.3543 62.9258 67.8978 62.9258H94.9524C95.2133 62.9258 95.4636 63.0294 95.6481 63.2139C95.8326 63.3984 95.9362 63.6487 95.9362 63.9096C95.9362 64.1705 95.8326 64.4207 95.6481 64.6052C95.4636 64.7897 95.2133 64.8934 94.9524 64.8934H67.8978C67.6369 64.8934 67.3867 64.7897 67.2022 64.6052C67.0177 64.4207 66.9141 64.1705 66.9141 63.9096V63.9096Z" stroke="url(#paint12_linear_21_454)" stroke-width="6.98823"/>
<path d="M97.8971 130.808C97.897 131.069 97.7934 131.319 97.6089 131.504C97.4244 131.688 97.1742 131.792 96.9134 131.792H69.8588C69.5979 131.792 69.3476 131.688 69.1631 131.504C68.9786 131.319 68.875 131.069 68.875 130.808C68.875 130.547 68.9786 130.297 69.1631 130.112C69.3476 129.928 69.5979 129.824 69.8588 129.824H96.9134C97.1743 129.824 97.4245 129.928 97.609 130.112C97.7935 130.297 97.8971 130.547 97.8971 130.808V130.808Z" stroke="url(#paint13_linear_21_454)" stroke-width="6.98823"/>
<path d="M63.9688 67.8432C63.9688 67.2996 64.409 66.8594 64.9525 66.8594H94.9585C95.2194 66.8594 95.4696 66.963 95.6541 67.1475C95.8386 67.332 95.9423 67.5822 95.9423 67.8432C95.9423 68.1041 95.8386 68.3543 95.6541 68.5388C95.4696 68.7233 95.2194 68.8269 94.9585 68.8269H64.9525C64.6916 68.8269 64.4414 68.7233 64.2569 68.5388C64.0724 68.3543 63.9688 68.1041 63.9688 67.8432V67.8432Z" stroke="url(#paint14_linear_21_454)" stroke-width="6.98823"/>
<path d="M100.849 126.874C100.848 127.135 100.745 127.385 100.56 127.57C100.376 127.754 100.126 127.858 99.8647 127.858H69.8588C69.5979 127.858 69.3476 127.755 69.1631 127.57C68.9786 127.386 68.875 127.135 68.875 126.874C68.875 126.613 68.9786 126.363 69.1631 126.179C69.3476 125.994 69.5979 125.891 69.8588 125.891H99.8647C100.126 125.891 100.376 125.994 100.56 126.179C100.745 126.363 100.849 126.613 100.849 126.874Z" stroke="url(#paint15_linear_21_454)" stroke-width="6.98823"/>
<path d="M61.0156 71.7846C61.0156 71.241 61.4559 70.8008 61.9994 70.8008H94.9567C95.2176 70.8008 95.4679 70.9044 95.6523 71.0889C95.8368 71.2734 95.9405 71.5237 95.9405 71.7846C95.9405 72.0455 95.8368 72.2957 95.6523 72.4802C95.4679 72.6647 95.2176 72.7684 94.9567 72.7684H61.9994C61.7385 72.7684 61.4883 72.6647 61.3038 72.4802C61.1193 72.2957 61.0156 72.0455 61.0156 71.7846V71.7846Z" stroke="url(#paint16_linear_21_454)" stroke-width="6.98823"/>
<path d="M103.8 122.941C103.8 123.202 103.696 123.452 103.512 123.637C103.327 123.821 103.077 123.925 102.816 123.925H69.859C69.598 123.925 69.3477 123.821 69.1632 123.637C68.9787 123.452 68.875 123.202 68.875 122.941C68.875 122.68 68.9787 122.43 69.1632 122.245C69.3477 122.061 69.598 121.957 69.859 121.957H102.816C103.077 121.957 103.327 122.061 103.512 122.245C103.696 122.43 103.8 122.68 103.8 122.941V122.941Z" stroke="url(#paint17_linear_21_454)" stroke-width="6.98823"/>
<path d="M58.0547 75.7182C58.0548 75.4572 58.1585 75.207 58.3431 75.0225C58.5276 74.838 58.7779 74.7344 59.0389 74.7344H94.9475C95.2037 74.7416 95.4469 74.8484 95.6255 75.0321C95.8041 75.2158 95.9041 75.4619 95.9041 75.7182C95.9041 75.9744 95.8041 76.2205 95.6255 76.4042C95.4469 76.5879 95.2037 76.6948 94.9475 76.7019H59.0389C58.9096 76.702 58.7817 76.6766 58.6623 76.6272C58.5429 76.5778 58.4344 76.5053 58.343 76.4139C58.2516 76.3226 58.1791 76.2141 58.1296 76.0947C58.0801 75.9753 58.0547 75.8474 58.0547 75.7182V75.7182Z" stroke="url(#paint18_linear_21_454)" stroke-width="6.98823"/>
<path d="M106.751 119.007C106.751 119.551 106.311 119.991 105.767 119.991H69.8588C69.5979 119.991 69.3476 119.887 69.1631 119.703C68.9786 119.518 68.875 119.268 68.875 119.007C68.875 118.746 68.9786 118.496 69.1631 118.312C69.3476 118.127 69.5979 118.023 69.8588 118.023H105.767C106.028 118.024 106.278 118.127 106.463 118.312C106.647 118.496 106.751 118.746 106.751 119.007V119.007Z" stroke="url(#paint19_linear_21_454)" stroke-width="6.98823"/>
<path d="M55.1094 79.6479C55.1095 79.387 55.2132 79.1368 55.3976 78.9523C55.5821 78.7679 55.8323 78.6642 56.0932 78.6641H94.9536C95.2097 78.6713 95.4529 78.7781 95.6316 78.9618C95.8102 79.1455 95.9101 79.3916 95.9101 79.6479C95.9101 79.9041 95.8102 80.1502 95.6316 80.3339C95.4529 80.5176 95.2097 80.6244 94.9536 80.6316H56.0932C55.8322 80.6316 55.582 80.528 55.3975 80.3435C55.213 80.159 55.1094 79.9088 55.1094 79.6479V79.6479Z" stroke="url(#paint20_linear_21_454)" stroke-width="6.98823"/>
<path d="M109.703 115.066C109.703 115.609 109.262 116.05 108.719 116.05H69.8588C69.5979 116.05 69.3476 115.946 69.1631 115.761C68.9786 115.577 68.875 115.327 68.875 115.066C68.875 114.805 68.9786 114.555 69.1631 114.37C69.3476 114.186 69.5979 114.082 69.8588 114.082H108.719C109.262 114.082 109.703 114.523 109.703 115.066Z" stroke="url(#paint21_linear_21_454)" stroke-width="6.98823"/>
<path d="M52.1562 83.5932C52.1564 83.3323 52.26 83.0821 52.4445 82.8976C52.629 82.7132 52.8792 82.6095 53.14 82.6094H94.9518C95.2079 82.6166 95.4512 82.7234 95.6298 82.9071C95.8084 83.0908 95.9084 83.3369 95.9084 83.5932C95.9084 83.8494 95.8084 84.0955 95.6298 84.2792C95.4512 84.463 95.2079 84.5698 94.9518 84.577H53.14C52.8791 84.577 52.6289 84.4733 52.4444 84.2888C52.2599 84.1043 52.1562 83.8541 52.1562 83.5932V83.5932Z" stroke="url(#paint22_linear_21_454)" stroke-width="6.98823"/>
<path d="M112.654 111.132C112.654 111.676 112.214 112.116 111.67 112.116H69.8588C69.5979 112.116 69.3476 112.012 69.1631 111.828C68.9786 111.643 68.875 111.393 68.875 111.132C68.875 110.871 68.9786 110.621 69.1631 110.437C69.3476 110.252 69.5979 110.148 69.8588 110.148H111.67C112.214 110.148 112.654 110.589 112.654 111.132Z" stroke="url(#paint23_linear_21_454)" stroke-width="6.98823"/>
<path d="M49.1953 87.5229C49.1954 87.262 49.2991 87.0118 49.4836 86.8273C49.668 86.6429 49.9182 86.5392 50.1791 86.5391H94.9422C95.1998 86.5442 95.4451 86.6501 95.6255 86.8341C95.8059 87.018 95.9069 87.2654 95.9069 87.523C95.9069 87.7807 95.8059 88.028 95.6255 88.212C95.4451 88.396 95.1998 88.5019 94.9422 88.507H50.1791C49.9181 88.5069 49.6679 88.4032 49.4834 88.2186C49.299 88.0341 49.1953 87.7838 49.1953 87.5229Z" stroke="url(#paint24_linear_21_454)" stroke-width="6.98823"/>
<path d="M115.605 107.199C115.605 107.742 115.165 108.182 114.622 108.182H69.8588C69.7296 108.182 69.6017 108.157 69.4823 108.108C69.3629 108.058 69.2545 107.986 69.1631 107.894C69.0718 107.803 68.9993 107.694 68.9499 107.575C68.9004 107.456 68.875 107.328 68.875 107.199C68.875 107.069 68.9004 106.942 68.9499 106.822C68.9993 106.703 69.0718 106.594 69.1631 106.503C69.2545 106.412 69.3629 106.339 69.4823 106.29C69.6017 106.24 69.7296 106.215 69.8588 106.215H114.622C115.165 106.215 115.605 106.655 115.605 107.199V107.199Z" stroke="url(#paint25_linear_21_454)" stroke-width="6.98823"/>
<path d="M46.25 91.4564C46.25 90.9129 46.6906 90.4727 47.2338 90.4727H121.019C121.28 90.4727 121.53 90.5763 121.714 90.7608C121.899 90.9453 122.002 91.1955 122.002 91.4564C122.002 91.7174 121.899 91.9676 121.714 92.1521C121.53 92.3366 121.28 92.4402 121.019 92.4402H47.2338C46.9729 92.4401 46.7227 92.3364 46.5383 92.152C46.3538 91.9675 46.2501 91.7173 46.25 91.4564V91.4564Z" stroke="url(#paint26_linear_21_454)" stroke-width="6.98823"/>
<path d="M43.3125 95.3978C43.3125 94.8543 43.7531 94.4141 44.2963 94.4141H121.524C121.785 94.4141 122.036 94.5177 122.22 94.7022C122.405 94.8867 122.508 95.1369 122.508 95.3978C122.508 95.6588 122.405 95.909 122.22 96.0935C122.036 96.278 121.785 96.3816 121.524 96.3816H44.2963C44.0354 96.3815 43.7852 96.2779 43.6008 96.0934C43.4163 95.9089 43.3126 95.6587 43.3125 95.3978V95.3978Z" stroke="url(#paint27_linear_21_454)" stroke-width="6.98823"/>
<path d="M42.3203 99.3314C42.3203 98.7879 42.761 98.3477 43.3041 98.3477H119.057C119.317 98.3477 119.568 98.4513 119.752 98.6358C119.937 98.8203 120.04 99.0705 120.04 99.3314C120.04 99.5924 119.937 99.8426 119.752 100.027C119.568 100.212 119.317 100.315 119.057 100.315H43.3041C43.0432 100.315 42.793 100.211 42.6086 100.027C42.4241 99.8425 42.3204 99.5923 42.3203 99.3314V99.3314Z" stroke="url(#paint28_linear_21_454)" stroke-width="6.98823"/>
<path d="M46.75 103.265C46.75 102.722 47.1906 102.281 47.7338 102.281H119.059C119.32 102.281 119.57 102.385 119.755 102.569C119.939 102.754 120.043 103.004 120.043 103.265C120.043 103.526 119.939 103.776 119.755 103.961C119.57 104.145 119.32 104.249 119.059 104.249H47.7338C47.4729 104.249 47.2227 104.145 47.0383 103.961C46.8538 103.776 46.7501 103.526 46.75 103.265V103.265Z" stroke="url(#paint29_linear_21_454)" stroke-width="6.98823"/>
</g>
<g opacity="0.4">
<path d="M86.5781 40.3006C86.5782 40.0397 86.6819 39.7895 86.8664 39.6051C87.0509 39.4206 87.301 39.3169 87.5619 39.3168H91.0052C91.1367 39.3131 91.2676 39.3358 91.3902 39.3836C91.5128 39.4314 91.6246 39.5032 91.7189 39.595C91.8132 39.6867 91.8882 39.7964 91.9394 39.9176C91.9906 40.0388 92.017 40.169 92.017 40.3006C92.017 40.4322 91.9906 40.5624 91.9394 40.6836C91.8882 40.8048 91.8132 40.9145 91.7189 41.0062C91.6246 41.0979 91.5128 41.1698 91.3902 41.2176C91.2676 41.2654 91.1367 41.2881 91.0052 41.2844H87.5619C87.301 41.2844 87.0508 41.1807 86.8663 40.9962C86.6818 40.8117 86.5781 40.5615 86.5781 40.3006V40.3006Z" stroke="url(#paint30_linear_21_454)" stroke-opacity="0.2" stroke-width="0.776471"/>
<path d="M78.2392 154.413C78.2392 154.957 77.7989 155.398 77.2554 155.398H73.8121C73.5511 155.398 73.3009 155.294 73.1163 155.109C72.9318 154.925 72.8281 154.675 72.8281 154.414C72.8281 154.153 72.9318 153.902 73.1163 153.718C73.3009 153.533 73.5511 153.43 73.8121 153.43H77.2554C77.7989 153.43 78.2392 153.87 78.2392 154.413Z" stroke="url(#paint31_linear_21_454)" stroke-opacity="0.2" stroke-width="0.776471"/>
<path d="M82.1641 44.2338C82.1642 43.9729 82.2678 43.7227 82.4523 43.5383C82.6368 43.3538 82.887 43.2501 83.1478 43.25H94.9537C95.2098 43.2572 95.4531 43.364 95.6317 43.5477C95.8103 43.7314 95.9102 43.9776 95.9102 44.2338C95.9102 44.49 95.8103 44.7362 95.6317 44.9199C95.4531 45.1036 95.2098 45.2104 94.9537 45.2176H83.1478C82.8869 45.2176 82.6367 45.1139 82.4522 44.9294C82.2677 44.7449 82.1641 44.4947 82.1641 44.2338V44.2338Z" stroke="url(#paint32_linear_21_454)" stroke-opacity="0.2" stroke-width="0.776471"/>
<path d="M82.648 150.484C82.648 151.027 82.2078 151.468 81.6642 151.468H69.8588C69.5979 151.468 69.3476 151.364 69.1631 151.179C68.9786 150.995 68.875 150.745 68.875 150.484C68.875 150.223 68.9786 149.973 69.1631 149.788C69.3476 149.604 69.5979 149.5 69.8588 149.5H81.6642C82.2078 149.5 82.648 149.941 82.648 150.484V150.484Z" stroke="url(#paint33_linear_21_454)" stroke-opacity="0.2" stroke-width="0.776471"/>
<path d="M79.2266 48.1674C79.2267 47.9065 79.3303 47.6563 79.5148 47.4718C79.6993 47.2874 79.9495 47.1837 80.2103 47.1836H94.9676C95.2237 47.1908 95.4669 47.2976 95.6455 47.4813C95.8242 47.665 95.9241 47.9111 95.9241 48.1674C95.9241 48.4236 95.8242 48.6697 95.6455 48.8535C95.4669 49.0372 95.2237 49.144 94.9676 49.1512H80.2103C79.9494 49.1512 79.6992 49.0475 79.5147 48.863C79.3302 48.6785 79.2266 48.4283 79.2266 48.1674V48.1674Z" stroke="url(#paint34_linear_21_454)" stroke-opacity="0.2" stroke-width="0.776471"/>
<path d="M85.5994 146.55C85.5994 147.094 85.1591 147.534 84.6156 147.534H69.8588C69.5979 147.534 69.3476 147.43 69.1631 147.246C68.9786 147.061 68.875 146.811 68.875 146.55C68.875 146.289 68.9786 146.039 69.1631 145.855C69.3476 145.67 69.5979 145.566 69.8588 145.566H84.6156C85.1591 145.566 85.5994 146.007 85.5994 146.55Z" stroke="url(#paint35_linear_21_454)" stroke-opacity="0.2" stroke-width="0.776471"/>
<path d="M76.2656 52.1088C76.2657 51.8479 76.3694 51.5977 76.5539 51.4133C76.7384 51.2288 76.9885 51.1251 77.2494 51.125H94.958C95.2141 51.1322 95.4574 51.239 95.636 51.4227C95.8146 51.6064 95.9145 51.8526 95.9145 52.1088C95.9145 52.365 95.8146 52.6112 95.636 52.7949C95.4574 52.9786 95.2141 53.0854 94.958 53.0926H77.2494C76.9885 53.0926 76.7383 52.9889 76.5538 52.8044C76.3693 52.6199 76.2656 52.3697 76.2656 52.1088V52.1088Z" stroke="url(#paint36_linear_21_454)" stroke-opacity="0.2" stroke-width="0.776471"/>
<path d="M88.5508 142.617C88.5508 143.16 88.1105 143.6 87.567 143.6H69.8588C69.5979 143.6 69.3476 143.497 69.1631 143.312C68.9786 143.128 68.875 142.878 68.875 142.617C68.875 142.356 68.9786 142.105 69.1631 141.921C69.3476 141.736 69.5979 141.633 69.8588 141.633H87.567C88.1105 141.633 88.5508 142.073 88.5508 142.617Z" stroke="url(#paint37_linear_21_454)" stroke-opacity="0.2" stroke-width="0.776471"/>
<path d="M73.3047 56.0428C73.3047 55.4992 73.7449 55.0586 74.2885 55.0586H94.9484C95.206 55.0637 95.4513 55.1696 95.6317 55.3536C95.812 55.5376 95.913 55.7849 95.913 56.0426C95.913 56.3002 95.812 56.5476 95.6317 56.7315C95.4513 56.9155 95.206 57.0214 94.9484 57.0266H74.2885C74.0276 57.0266 73.7773 56.9229 73.5928 56.7384C73.4083 56.5539 73.3047 56.3037 73.3047 56.0428V56.0428Z" stroke="url(#paint38_linear_21_454)" stroke-opacity="0.2" stroke-width="0.776471"/>
<path d="M91.5025 138.683C91.5025 139.227 91.0619 139.667 90.5183 139.667H69.8588C69.5979 139.667 69.3476 139.563 69.1631 139.379C68.9786 139.194 68.875 138.944 68.875 138.683C68.875 138.422 68.9786 138.172 69.1631 137.987C69.3476 137.803 69.5979 137.699 69.8588 137.699H90.5183C91.0619 137.699 91.5025 138.14 91.5025 138.683Z" stroke="url(#paint39_linear_21_454)" stroke-opacity="0.2" stroke-width="0.776471"/>
<path d="M70.3672 59.976C70.3672 59.4324 70.8074 58.9922 71.351 58.9922H94.9623C95.2232 58.9922 95.4734 59.0958 95.6579 59.2803C95.8424 59.4648 95.9461 59.7151 95.9461 59.976C95.9461 60.2369 95.8424 60.4871 95.6579 60.6716C95.4734 60.8561 95.2232 60.9598 94.9623 60.9598H71.351C71.0901 60.9598 70.8398 60.8561 70.6553 60.6716C70.4708 60.4871 70.3672 60.2369 70.3672 59.976V59.976Z" stroke="url(#paint40_linear_21_454)" stroke-opacity="0.2" stroke-width="0.776471"/>
<path d="M94.4539 134.749C94.4538 135.01 94.3501 135.26 94.1656 135.445C93.9812 135.629 93.731 135.733 93.4701 135.733H69.8588C69.5979 135.733 69.3476 135.63 69.1631 135.445C68.9786 135.261 68.875 135.01 68.875 134.749C68.875 134.488 68.9786 134.238 69.1631 134.054C69.3476 133.869 69.5979 133.766 69.8588 133.766H93.4701C93.731 133.766 93.9812 133.869 94.1657 134.054C94.3502 134.238 94.4539 134.488 94.4539 134.749V134.749Z" stroke="url(#paint41_linear_21_454)" stroke-opacity="0.2" stroke-width="0.776471"/>
<path d="M66.9141 63.9096C66.9141 63.366 67.3543 62.9258 67.8978 62.9258H94.9524C95.2133 62.9258 95.4636 63.0294 95.6481 63.2139C95.8326 63.3984 95.9362 63.6487 95.9362 63.9096C95.9362 64.1705 95.8326 64.4207 95.6481 64.6052C95.4636 64.7897 95.2133 64.8934 94.9524 64.8934H67.8978C67.6369 64.8934 67.3867 64.7897 67.2022 64.6052C67.0177 64.4207 66.9141 64.1705 66.9141 63.9096V63.9096Z" stroke="url(#paint42_linear_21_454)" stroke-opacity="0.2" stroke-width="0.776471"/>
<path d="M97.8971 130.808C97.897 131.069 97.7934 131.319 97.6089 131.504C97.4244 131.688 97.1742 131.792 96.9134 131.792H69.8588C69.5979 131.792 69.3476 131.688 69.1631 131.504C68.9786 131.319 68.875 131.069 68.875 130.808C68.875 130.547 68.9786 130.297 69.1631 130.112C69.3476 129.928 69.5979 129.824 69.8588 129.824H96.9134C97.1743 129.824 97.4245 129.928 97.609 130.112C97.7935 130.297 97.8971 130.547 97.8971 130.808V130.808Z" stroke="url(#paint43_linear_21_454)" stroke-opacity="0.2" stroke-width="0.776471"/>
<path d="M63.9688 67.8432C63.9688 67.2996 64.409 66.8594 64.9525 66.8594H94.9585C95.2194 66.8594 95.4696 66.963 95.6541 67.1475C95.8386 67.332 95.9423 67.5822 95.9423 67.8432C95.9423 68.1041 95.8386 68.3543 95.6541 68.5388C95.4696 68.7233 95.2194 68.8269 94.9585 68.8269H64.9525C64.6916 68.8269 64.4414 68.7233 64.2569 68.5388C64.0724 68.3543 63.9688 68.1041 63.9688 67.8432V67.8432Z" stroke="url(#paint44_linear_21_454)" stroke-opacity="0.2" stroke-width="0.776471"/>
<path d="M100.849 126.874C100.848 127.135 100.745 127.385 100.56 127.57C100.376 127.754 100.126 127.858 99.8647 127.858H69.8588C69.5979 127.858 69.3476 127.755 69.1631 127.57C68.9786 127.386 68.875 127.135 68.875 126.874C68.875 126.613 68.9786 126.363 69.1631 126.179C69.3476 125.994 69.5979 125.891 69.8588 125.891H99.8647C100.126 125.891 100.376 125.994 100.56 126.179C100.745 126.363 100.849 126.613 100.849 126.874Z" stroke="url(#paint45_linear_21_454)" stroke-opacity="0.2" stroke-width="0.776471"/>
<path d="M61.0156 71.7846C61.0156 71.241 61.4559 70.8008 61.9994 70.8008H94.9567C95.2176 70.8008 95.4679 70.9044 95.6523 71.0889C95.8368 71.2734 95.9405 71.5237 95.9405 71.7846C95.9405 72.0455 95.8368 72.2957 95.6523 72.4802C95.4679 72.6647 95.2176 72.7684 94.9567 72.7684H61.9994C61.7385 72.7684 61.4883 72.6647 61.3038 72.4802C61.1193 72.2957 61.0156 72.0455 61.0156 71.7846V71.7846Z" stroke="url(#paint46_linear_21_454)" stroke-opacity="0.2" stroke-width="0.776471"/>
<path d="M103.8 122.941C103.8 123.202 103.696 123.452 103.512 123.637C103.327 123.821 103.077 123.925 102.816 123.925H69.859C69.598 123.925 69.3477 123.821 69.1632 123.637C68.9787 123.452 68.875 123.202 68.875 122.941C68.875 122.68 68.9787 122.43 69.1632 122.245C69.3477 122.061 69.598 121.957 69.859 121.957H102.816C103.077 121.957 103.327 122.061 103.512 122.245C103.696 122.43 103.8 122.68 103.8 122.941V122.941Z" stroke="url(#paint47_linear_21_454)" stroke-opacity="0.2" stroke-width="0.776471"/>
<path d="M58.0547 75.7182C58.0548 75.4572 58.1585 75.207 58.3431 75.0225C58.5276 74.838 58.7779 74.7344 59.0389 74.7344H94.9475C95.2037 74.7416 95.4469 74.8484 95.6255 75.0321C95.8041 75.2158 95.9041 75.4619 95.9041 75.7182C95.9041 75.9744 95.8041 76.2205 95.6255 76.4042C95.4469 76.5879 95.2037 76.6948 94.9475 76.7019H59.0389C58.9096 76.702 58.7817 76.6766 58.6623 76.6272C58.5429 76.5778 58.4344 76.5053 58.343 76.4139C58.2516 76.3226 58.1791 76.2141 58.1296 76.0947C58.0801 75.9753 58.0547 75.8474 58.0547 75.7182V75.7182Z" stroke="url(#paint48_linear_21_454)" stroke-opacity="0.2" stroke-width="0.776471"/>
<path d="M106.751 119.007C106.751 119.551 106.311 119.991 105.767 119.991H69.8588C69.5979 119.991 69.3476 119.887 69.1631 119.703C68.9786 119.518 68.875 119.268 68.875 119.007C68.875 118.746 68.9786 118.496 69.1631 118.312C69.3476 118.127 69.5979 118.023 69.8588 118.023H105.767C106.028 118.024 106.278 118.127 106.463 118.312C106.647 118.496 106.751 118.746 106.751 119.007V119.007Z" stroke="url(#paint49_linear_21_454)" stroke-opacity="0.2" stroke-width="0.776471"/>
<path d="M55.1094 79.6479C55.1095 79.387 55.2132 79.1368 55.3976 78.9523C55.5821 78.7679 55.8323 78.6642 56.0932 78.6641H94.9536C95.2097 78.6713 95.4529 78.7781 95.6316 78.9618C95.8102 79.1455 95.9101 79.3916 95.9101 79.6479C95.9101 79.9041 95.8102 80.1502 95.6316 80.3339C95.4529 80.5176 95.2097 80.6244 94.9536 80.6316H56.0932C55.8322 80.6316 55.582 80.528 55.3975 80.3435C55.213 80.159 55.1094 79.9088 55.1094 79.6479V79.6479Z" stroke="url(#paint50_linear_21_454)" stroke-opacity="0.2" stroke-width="0.776471"/>
<path d="M109.703 115.066C109.703 115.609 109.262 116.05 108.719 116.05H69.8588C69.5979 116.05 69.3476 115.946 69.1631 115.761C68.9786 115.577 68.875 115.327 68.875 115.066C68.875 114.805 68.9786 114.555 69.1631 114.37C69.3476 114.186 69.5979 114.082 69.8588 114.082H108.719C109.262 114.082 109.703 114.523 109.703 115.066Z" stroke="url(#paint51_linear_21_454)" stroke-opacity="0.2" stroke-width="0.776471"/>
<path d="M52.1562 83.5932C52.1564 83.3323 52.26 83.0821 52.4445 82.8976C52.629 82.7132 52.8792 82.6095 53.14 82.6094H94.9518C95.2079 82.6166 95.4512 82.7234 95.6298 82.9071C95.8084 83.0908 95.9084 83.3369 95.9084 83.5932C95.9084 83.8494 95.8084 84.0955 95.6298 84.2792C95.4512 84.463 95.2079 84.5698 94.9518 84.577H53.14C52.8791 84.577 52.6289 84.4733 52.4444 84.2888C52.2599 84.1043 52.1562 83.8541 52.1562 83.5932V83.5932Z" stroke="url(#paint52_linear_21_454)" stroke-opacity="0.2" stroke-width="0.776471"/>
<path d="M112.654 111.132C112.654 111.676 112.214 112.116 111.67 112.116H69.8588C69.5979 112.116 69.3476 112.012 69.1631 111.828C68.9786 111.643 68.875 111.393 68.875 111.132C68.875 110.871 68.9786 110.621 69.1631 110.437C69.3476 110.252 69.5979 110.148 69.8588 110.148H111.67C112.214 110.148 112.654 110.589 112.654 111.132Z" stroke="url(#paint53_linear_21_454)" stroke-opacity="0.2" stroke-width="0.776471"/>
<path d="M49.1953 87.5229C49.1954 87.262 49.2991 87.0118 49.4836 86.8273C49.668 86.6429 49.9182 86.5392 50.1791 86.5391H94.9422C95.1998 86.5442 95.4451 86.6501 95.6255 86.8341C95.8059 87.018 95.9069 87.2654 95.9069 87.523C95.9069 87.7807 95.8059 88.028 95.6255 88.212C95.4451 88.396 95.1998 88.5019 94.9422 88.507H50.1791C49.9181 88.5069 49.6679 88.4032 49.4834 88.2186C49.299 88.0341 49.1953 87.7838 49.1953 87.5229Z" stroke="url(#paint54_linear_21_454)" stroke-opacity="0.2" stroke-width="0.776471"/>
<path d="M115.605 107.199C115.605 107.742 115.165 108.182 114.622 108.182H69.8588C69.7296 108.182 69.6017 108.157 69.4823 108.108C69.3629 108.058 69.2545 107.986 69.1631 107.894C69.0718 107.803 68.9993 107.694 68.9499 107.575C68.9004 107.456 68.875 107.328 68.875 107.199C68.875 107.069 68.9004 106.942 68.9499 106.822C68.9993 106.703 69.0718 106.594 69.1631 106.503C69.2545 106.412 69.3629 106.339 69.4823 106.29C69.6017 106.24 69.7296 106.215 69.8588 106.215H114.622C115.165 106.215 115.605 106.655 115.605 107.199V107.199Z" stroke="url(#paint55_linear_21_454)" stroke-opacity="0.2" stroke-width="0.776471"/>
<path d="M46.25 91.4564C46.25 90.9129 46.6906 90.4727 47.2338 90.4727H121.019C121.28 90.4727 121.53 90.5763 121.714 90.7608C121.899 90.9453 122.002 91.1955 122.002 91.4564C122.002 91.7174 121.899 91.9676 121.714 92.1521C121.53 92.3366 121.28 92.4402 121.019 92.4402H47.2338C46.9729 92.4401 46.7227 92.3364 46.5383 92.152C46.3538 91.9675 46.2501 91.7173 46.25 91.4564V91.4564Z" stroke="url(#paint56_linear_21_454)" stroke-opacity="0.2" stroke-width="0.776471"/>
<path d="M43.3125 95.3978C43.3125 94.8543 43.7531 94.4141 44.2963 94.4141H121.524C121.785 94.4141 122.036 94.5177 122.22 94.7022C122.405 94.8867 122.508 95.1369 122.508 95.3978C122.508 95.6588 122.405 95.909 122.22 96.0935C122.036 96.278 121.785 96.3816 121.524 96.3816H44.2963C44.0354 96.3815 43.7852 96.2779 43.6008 96.0934C43.4163 95.9089 43.3126 95.6587 43.3125 95.3978V95.3978Z" stroke="url(#paint57_linear_21_454)" stroke-opacity="0.2" stroke-width="0.776471"/>
<path d="M42.3203 99.3314C42.3203 98.7879 42.761 98.3477 43.3041 98.3477H119.057C119.317 98.3477 119.568 98.4513 119.752 98.6358C119.937 98.8203 120.04 99.0705 120.04 99.3314C120.04 99.5924 119.937 99.8426 119.752 100.027C119.568 100.212 119.317 100.315 119.057 100.315H43.3041C43.0432 100.315 42.793 100.211 42.6086 100.027C42.4241 99.8425 42.3204 99.5923 42.3203 99.3314V99.3314Z" stroke="url(#paint58_linear_21_454)" stroke-opacity="0.2" stroke-width="0.776471"/>
<path d="M46.75 103.265C46.75 102.722 47.1906 102.281 47.7338 102.281H119.059C119.32 102.281 119.57 102.385 119.755 102.569C119.939 102.754 120.043 103.004 120.043 103.265C120.043 103.526 119.939 103.776 119.755 103.961C119.57 104.145 119.32 104.249 119.059 104.249H47.7338C47.4729 104.249 47.2227 104.145 47.0383 103.961C46.8538 103.776 46.7501 103.526 46.75 103.265V103.265Z" stroke="url(#paint59_linear_21_454)" stroke-opacity="0.2" stroke-width="0.776471"/>
</g>
<path d="M86.5781 40.3006C86.5782 40.0397 86.6819 39.7895 86.8664 39.6051C87.0509 39.4206 87.301 39.3169 87.5619 39.3168H91.0052C91.1367 39.3131 91.2676 39.3358 91.3902 39.3836C91.5128 39.4314 91.6246 39.5032 91.7189 39.595C91.8132 39.6867 91.8882 39.7964 91.9394 39.9176C91.9906 40.0388 92.017 40.169 92.017 40.3006C92.017 40.4322 91.9906 40.5624 91.9394 40.6836C91.8882 40.8048 91.8132 40.9145 91.7189 41.0062C91.6246 41.0979 91.5128 41.1698 91.3902 41.2176C91.2676 41.2654 91.1367 41.2881 91.0052 41.2844H87.5619C87.301 41.2844 87.0508 41.1807 86.8663 40.9962C86.6818 40.8117 86.5781 40.5615 86.5781 40.3006V40.3006Z" stroke="url(#paint60_linear_21_454)" stroke-opacity="0.2" stroke-width="3.10588"/>
<path d="M78.2392 154.413C78.2392 154.957 77.7989 155.398 77.2554 155.398H73.8121C73.5511 155.398 73.3009 155.294 73.1163 155.109C72.9318 154.925 72.8281 154.675 72.8281 154.414C72.8281 154.153 72.9318 153.902 73.1163 153.718C73.3009 153.533 73.5511 153.43 73.8121 153.43H77.2554C77.7989 153.43 78.2392 153.87 78.2392 154.413Z" stroke="url(#paint61_linear_21_454)" stroke-opacity="0.2" stroke-width="3.10588"/>
<path d="M82.1641 44.2338C82.1642 43.9729 82.2678 43.7227 82.4523 43.5383C82.6368 43.3538 82.887 43.2501 83.1478 43.25H94.9537C95.2098 43.2572 95.4531 43.364 95.6317 43.5477C95.8103 43.7314 95.9102 43.9776 95.9102 44.2338C95.9102 44.49 95.8103 44.7362 95.6317 44.9199C95.4531 45.1036 95.2098 45.2104 94.9537 45.2176H83.1478C82.8869 45.2176 82.6367 45.1139 82.4522 44.9294C82.2677 44.7449 82.1641 44.4947 82.1641 44.2338V44.2338Z" stroke="url(#paint62_linear_21_454)" stroke-opacity="0.2" stroke-width="3.10588"/>
<path d="M82.648 150.484C82.648 151.027 82.2078 151.468 81.6642 151.468H69.8588C69.5979 151.468 69.3476 151.364 69.1631 151.179C68.9786 150.995 68.875 150.745 68.875 150.484C68.875 150.223 68.9786 149.973 69.1631 149.788C69.3476 149.604 69.5979 149.5 69.8588 149.5H81.6642C82.2078 149.5 82.648 149.941 82.648 150.484V150.484Z" stroke="url(#paint63_linear_21_454)" stroke-opacity="0.2" stroke-width="3.10588"/>
<path d="M79.2266 48.1674C79.2267 47.9065 79.3303 47.6563 79.5148 47.4718C79.6993 47.2874 79.9495 47.1837 80.2103 47.1836H94.9676C95.2237 47.1908 95.4669 47.2976 95.6455 47.4813C95.8242 47.665 95.9241 47.9111 95.9241 48.1674C95.9241 48.4236 95.8242 48.6697 95.6455 48.8535C95.4669 49.0372 95.2237 49.144 94.9676 49.1512H80.2103C79.9494 49.1512 79.6992 49.0475 79.5147 48.863C79.3302 48.6785 79.2266 48.4283 79.2266 48.1674V48.1674Z" stroke="url(#paint64_linear_21_454)" stroke-opacity="0.2" stroke-width="3.10588"/>
<path d="M85.5994 146.55C85.5994 147.094 85.1591 147.534 84.6156 147.534H69.8588C69.5979 147.534 69.3476 147.43 69.1631 147.246C68.9786 147.061 68.875 146.811 68.875 146.55C68.875 146.289 68.9786 146.039 69.1631 145.855C69.3476 145.67 69.5979 145.566 69.8588 145.566H84.6156C85.1591 145.566 85.5994 146.007 85.5994 146.55Z" stroke="url(#paint65_linear_21_454)" stroke-opacity="0.2" stroke-width="3.10588"/>
<path d="M76.2656 52.1088C76.2657 51.8479 76.3694 51.5977 76.5539 51.4133C76.7384 51.2288 76.9885 51.1251 77.2494 51.125H94.958C95.2141 51.1322 95.4574 51.239 95.636 51.4227C95.8146 51.6064 95.9145 51.8526 95.9145 52.1088C95.9145 52.365 95.8146 52.6112 95.636 52.7949C95.4574 52.9786 95.2141 53.0854 94.958 53.0926H77.2494C76.9885 53.0926 76.7383 52.9889 76.5538 52.8044C76.3693 52.6199 76.2656 52.3697 76.2656 52.1088V52.1088Z" stroke="url(#paint66_linear_21_454)" stroke-opacity="0.2" stroke-width="3.10588"/>
<path d="M88.5508 142.617C88.5508 143.16 88.1105 143.6 87.567 143.6H69.8588C69.5979 143.6 69.3476 143.497 69.1631 143.312C68.9786 143.128 68.875 142.878 68.875 142.617C68.875 142.356 68.9786 142.105 69.1631 141.921C69.3476 141.736 69.5979 141.633 69.8588 141.633H87.567C88.1105 141.633 88.5508 142.073 88.5508 142.617Z" stroke="url(#paint67_linear_21_454)" stroke-opacity="0.2" stroke-width="3.10588"/>
<path d="M73.3047 56.0428C73.3047 55.4992 73.7449 55.0586 74.2885 55.0586H94.9484C95.206 55.0637 95.4513 55.1696 95.6317 55.3536C95.812 55.5376 95.913 55.7849 95.913 56.0426C95.913 56.3002 95.812 56.5476 95.6317 56.7315C95.4513 56.9155 95.206 57.0214 94.9484 57.0266H74.2885C74.0276 57.0266 73.7773 56.9229 73.5928 56.7384C73.4083 56.5539 73.3047 56.3037 73.3047 56.0428V56.0428Z" stroke="url(#paint68_linear_21_454)" stroke-opacity="0.2" stroke-width="3.10588"/>
<path d="M91.5025 138.683C91.5025 139.227 91.0619 139.667 90.5183 139.667H69.8588C69.5979 139.667 69.3476 139.563 69.1631 139.379C68.9786 139.194 68.875 138.944 68.875 138.683C68.875 138.422 68.9786 138.172 69.1631 137.987C69.3476 137.803 69.5979 137.699 69.8588 137.699H90.5183C91.0619 137.699 91.5025 138.14 91.5025 138.683Z" stroke="url(#paint69_linear_21_454)" stroke-opacity="0.2" stroke-width="3.10588"/>
<path d="M70.3672 59.976C70.3672 59.4324 70.8074 58.9922 71.351 58.9922H94.9623C95.2232 58.9922 95.4734 59.0958 95.6579 59.2803C95.8424 59.4648 95.9461 59.7151 95.9461 59.976C95.9461 60.2369 95.8424 60.4871 95.6579 60.6716C95.4734 60.8561 95.2232 60.9598 94.9623 60.9598H71.351C71.0901 60.9598 70.8398 60.8561 70.6553 60.6716C70.4708 60.4871 70.3672 60.2369 70.3672 59.976V59.976Z" stroke="url(#paint70_linear_21_454)" stroke-opacity="0.2" stroke-width="3.10588"/>
<path d="M94.4539 134.749C94.4538 135.01 94.3501 135.26 94.1656 135.445C93.9812 135.629 93.731 135.733 93.4701 135.733H69.8588C69.5979 135.733 69.3476 135.63 69.1631 135.445C68.9786 135.261 68.875 135.01 68.875 134.749C68.875 134.488 68.9786 134.238 69.1631 134.054C69.3476 133.869 69.5979 133.766 69.8588 133.766H93.4701C93.731 133.766 93.9812 133.869 94.1657 134.054C94.3502 134.238 94.4539 134.488 94.4539 134.749V134.749Z" stroke="url(#paint71_linear_21_454)" stroke-opacity="0.2" stroke-width="3.10588"/>
<path d="M66.9141 63.9096C66.9141 63.366 67.3543 62.9258 67.8978 62.9258H94.9524C95.2133 62.9258 95.4636 63.0294 95.6481 63.2139C95.8326 63.3984 95.9362 63.6487 95.9362 63.9096C95.9362 64.1705 95.8326 64.4207 95.6481 64.6052C95.4636 64.7897 95.2133 64.8934 94.9524 64.8934H67.8978C67.6369 64.8934 67.3867 64.7897 67.2022 64.6052C67.0177 64.4207 66.9141 64.1705 66.9141 63.9096V63.9096Z" stroke="url(#paint72_linear_21_454)" stroke-opacity="0.2" stroke-width="3.10588"/>
<path d="M97.8971 130.808C97.897 131.069 97.7934 131.319 97.6089 131.504C97.4244 131.688 97.1742 131.792 96.9134 131.792H69.8588C69.5979 131.792 69.3476 131.688 69.1631 131.504C68.9786 131.319 68.875 131.069 68.875 130.808C68.875 130.547 68.9786 130.297 69.1631 130.112C69.3476 129.928 69.5979 129.824 69.8588 129.824H96.9134C97.1743 129.824 97.4245 129.928 97.609 130.112C97.7935 130.297 97.8971 130.547 97.8971 130.808V130.808Z" stroke="url(#paint73_linear_21_454)" stroke-opacity="0.2" stroke-width="3.10588"/>
<path d="M63.9688 67.8432C63.9688 67.2996 64.409 66.8594 64.9525 66.8594H94.9585C95.2194 66.8594 95.4696 66.963 95.6541 67.1475C95.8386 67.332 95.9423 67.5822 95.9423 67.8432C95.9423 68.1041 95.8386 68.3543 95.6541 68.5388C95.4696 68.7233 95.2194 68.8269 94.9585 68.8269H64.9525C64.6916 68.8269 64.4414 68.7233 64.2569 68.5388C64.0724 68.3543 63.9688 68.1041 63.9688 67.8432V67.8432Z" stroke="url(#paint74_linear_21_454)" stroke-opacity="0.2" stroke-width="3.10588"/>
<path d="M100.849 126.874C100.848 127.135 100.745 127.385 100.56 127.57C100.376 127.754 100.126 127.858 99.8647 127.858H69.8588C69.5979 127.858 69.3476 127.755 69.1631 127.57C68.9786 127.386 68.875 127.135 68.875 126.874C68.875 126.613 68.9786 126.363 69.1631 126.179C69.3476 125.994 69.5979 125.891 69.8588 125.891H99.8647C100.126 125.891 100.376 125.994 100.56 126.179C100.745 126.363 100.849 126.613 100.849 126.874Z" stroke="url(#paint75_linear_21_454)" stroke-opacity="0.2" stroke-width="3.10588"/>
<path d="M61.0156 71.7846C61.0156 71.241 61.4559 70.8008 61.9994 70.8008H94.9567C95.2176 70.8008 95.4679 70.9044 95.6523 71.0889C95.8368 71.2734 95.9405 71.5237 95.9405 71.7846C95.9405 72.0455 95.8368 72.2957 95.6523 72.4802C95.4679 72.6647 95.2176 72.7684 94.9567 72.7684H61.9994C61.7385 72.7684 61.4883 72.6647 61.3038 72.4802C61.1193 72.2957 61.0156 72.0455 61.0156 71.7846V71.7846Z" stroke="url(#paint76_linear_21_454)" stroke-opacity="0.2" stroke-width="3.10588"/>
<path d="M103.8 122.941C103.8 123.202 103.696 123.452 103.512 123.637C103.327 123.821 103.077 123.925 102.816 123.925H69.859C69.598 123.925 69.3477 123.821 69.1632 123.637C68.9787 123.452 68.875 123.202 68.875 122.941C68.875 122.68 68.9787 122.43 69.1632 122.245C69.3477 122.061 69.598 121.957 69.859 121.957H102.816C103.077 121.957 103.327 122.061 103.512 122.245C103.696 122.43 103.8 122.68 103.8 122.941V122.941Z" stroke="url(#paint77_linear_21_454)" stroke-opacity="0.2" stroke-width="3.10588"/>
<path d="M58.0547 75.7182C58.0548 75.4572 58.1585 75.207 58.3431 75.0225C58.5276 74.838 58.7779 74.7344 59.0389 74.7344H94.9475C95.2037 74.7416 95.4469 74.8484 95.6255 75.0321C95.8041 75.2158 95.9041 75.4619 95.9041 75.7182C95.9041 75.9744 95.8041 76.2205 95.6255 76.4042C95.4469 76.5879 95.2037 76.6948 94.9475 76.7019H59.0389C58.9096 76.702 58.7817 76.6766 58.6623 76.6272C58.5429 76.5778 58.4344 76.5053 58.343 76.4139C58.2516 76.3226 58.1791 76.2141 58.1296 76.0947C58.0801 75.9753 58.0547 75.8474 58.0547 75.7182V75.7182Z" stroke="url(#paint78_linear_21_454)" stroke-opacity="0.2" stroke-width="3.10588"/>
<path d="M106.751 119.007C106.751 119.551 106.311 119.991 105.767 119.991H69.8588C69.5979 119.991 69.3476 119.887 69.1631 119.703C68.9786 119.518 68.875 119.268 68.875 119.007C68.875 118.746 68.9786 118.496 69.1631 118.312C69.3476 118.127 69.5979 118.023 69.8588 118.023H105.767C106.028 118.024 106.278 118.127 106.463 118.312C106.647 118.496 106.751 118.746 106.751 119.007V119.007Z" stroke="url(#paint79_linear_21_454)" stroke-opacity="0.2" stroke-width="3.10588"/>
<path d="M55.1094 79.6479C55.1095 79.387 55.2132 79.1368 55.3976 78.9523C55.5821 78.7679 55.8323 78.6642 56.0932 78.6641H94.9536C95.2097 78.6713 95.4529 78.7781 95.6316 78.9618C95.8102 79.1455 95.9101 79.3916 95.9101 79.6479C95.9101 79.9041 95.8102 80.1502 95.6316 80.3339C95.4529 80.5176 95.2097 80.6244 94.9536 80.6316H56.0932C55.8322 80.6316 55.582 80.528 55.3975 80.3435C55.213 80.159 55.1094 79.9088 55.1094 79.6479V79.6479Z" stroke="url(#paint80_linear_21_454)" stroke-opacity="0.2" stroke-width="3.10588"/>
<path d="M109.703 115.066C109.703 115.609 109.262 116.05 108.719 116.05H69.8588C69.5979 116.05 69.3476 115.946 69.1631 115.761C68.9786 115.577 68.875 115.327 68.875 115.066C68.875 114.805 68.9786 114.555 69.1631 114.37C69.3476 114.186 69.5979 114.082 69.8588 114.082H108.719C109.262 114.082 109.703 114.523 109.703 115.066Z" stroke="url(#paint81_linear_21_454)" stroke-opacity="0.2" stroke-width="3.10588"/>
<path d="M52.1562 83.5932C52.1564 83.3323 52.26 83.0821 52.4445 82.8976C52.629 82.7132 52.8792 82.6095 53.14 82.6094H94.9518C95.2079 82.6166 95.4512 82.7234 95.6298 82.9071C95.8084 83.0908 95.9084 83.3369 95.9084 83.5932C95.9084 83.8494 95.8084 84.0955 95.6298 84.2792C95.4512 84.463 95.2079 84.5698 94.9518 84.577H53.14C52.8791 84.577 52.6289 84.4733 52.4444 84.2888C52.2599 84.1043 52.1562 83.8541 52.1562 83.5932V83.5932Z" stroke="url(#paint82_linear_21_454)" stroke-opacity="0.2" stroke-width="3.10588"/>
<path d="M112.654 111.132C112.654 111.676 112.214 112.116 111.67 112.116H69.8588C69.5979 112.116 69.3476 112.012 69.1631 111.828C68.9786 111.643 68.875 111.393 68.875 111.132C68.875 110.871 68.9786 110.621 69.1631 110.437C69.3476 110.252 69.5979 110.148 69.8588 110.148H111.67C112.214 110.148 112.654 110.589 112.654 111.132Z" stroke="url(#paint83_linear_21_454)" stroke-opacity="0.2" stroke-width="3.10588"/>
<path d="M49.1953 87.5229C49.1954 87.262 49.2991 87.0118 49.4836 86.8273C49.668 86.6429 49.9182 86.5392 50.1791 86.5391H94.9422C95.1998 86.5442 95.4451 86.6501 95.6255 86.8341C95.8059 87.018 95.9069 87.2654 95.9069 87.523C95.9069 87.7807 95.8059 88.028 95.6255 88.212C95.4451 88.396 95.1998 88.5019 94.9422 88.507H50.1791C49.9181 88.5069 49.6679 88.4032 49.4834 88.2186C49.299 88.0341 49.1953 87.7838 49.1953 87.5229Z" stroke="url(#paint84_linear_21_454)" stroke-opacity="0.2" stroke-width="3.10588"/>
<path d="M115.605 107.199C115.605 107.742 115.165 108.182 114.622 108.182H69.8588C69.7296 108.182 69.6017 108.157 69.4823 108.108C69.3629 108.058 69.2545 107.986 69.1631 107.894C69.0718 107.803 68.9993 107.694 68.9499 107.575C68.9004 107.456 68.875 107.328 68.875 107.199C68.875 107.069 68.9004 106.942 68.9499 106.822C68.9993 106.703 69.0718 106.594 69.1631 106.503C69.2545 106.412 69.3629 106.339 69.4823 106.29C69.6017 106.24 69.7296 106.215 69.8588 106.215H114.622C115.165 106.215 115.605 106.655 115.605 107.199V107.199Z" stroke="url(#paint85_linear_21_454)" stroke-opacity="0.2" stroke-width="3.10588"/>
<path d="M46.25 91.4564C46.25 90.9129 46.6906 90.4727 47.2338 90.4727H121.019C121.28 90.4727 121.53 90.5763 121.714 90.7608C121.899 90.9453 122.002 91.1955 122.002 91.4564C122.002 91.7174 121.899 91.9676 121.714 92.1521C121.53 92.3366 121.28 92.4402 121.019 92.4402H47.2338C46.9729 92.4401 46.7227 92.3364 46.5383 92.152C46.3538 91.9675 46.2501 91.7173 46.25 91.4564V91.4564Z" stroke="url(#paint86_linear_21_454)" stroke-opacity="0.2" stroke-width="3.10588"/>
<path d="M43.3125 95.3978C43.3125 94.8543 43.7531 94.4141 44.2963 94.4141H121.524C121.785 94.4141 122.036 94.5177 122.22 94.7022C122.405 94.8867 122.508 95.1369 122.508 95.3978C122.508 95.6588 122.405 95.909 122.22 96.0935C122.036 96.278 121.785 96.3816 121.524 96.3816H44.2963C44.0354 96.3815 43.7852 96.2779 43.6008 96.0934C43.4163 95.9089 43.3126 95.6587 43.3125 95.3978V95.3978Z" stroke="url(#paint87_linear_21_454)" stroke-opacity="0.2" stroke-width="3.10588"/>
<path d="M42.3203 99.3314C42.3203 98.7879 42.761 98.3477 43.3041 98.3477H119.057C119.317 98.3477 119.568 98.4513 119.752 98.6358C119.937 98.8203 120.04 99.0705 120.04 99.3314C120.04 99.5924 119.937 99.8426 119.752 100.027C119.568 100.212 119.317 100.315 119.057 100.315H43.3041C43.0432 100.315 42.793 100.211 42.6086 100.027C42.4241 99.8425 42.3204 99.5923 42.3203 99.3314V99.3314Z" stroke="url(#paint88_linear_21_454)" stroke-opacity="0.2" stroke-width="3.10588"/>
<path d="M46.75 103.265C46.75 102.722 47.1906 102.281 47.7338 102.281H119.059C119.32 102.281 119.57 102.385 119.755 102.569C119.939 102.754 120.043 103.004 120.043 103.265C120.043 103.526 119.939 103.776 119.755 103.961C119.57 104.145 119.32 104.249 119.059 104.249H47.7338C47.4729 104.249 47.2227 104.145 47.0383 103.961C46.8538 103.776 46.7501 103.526 46.75 103.265V103.265Z" stroke="url(#paint89_linear_21_454)" stroke-opacity="0.2" stroke-width="3.10588"/>
<path d="M86.5781 40.3006C86.5782 40.0397 86.6819 39.7895 86.8664 39.6051C87.0509 39.4206 87.301 39.3169 87.5619 39.3168H91.0052C91.1367 39.3131 91.2676 39.3358 91.3902 39.3836C91.5128 39.4314 91.6246 39.5032 91.7189 39.595C91.8132 39.6867 91.8882 39.7964 91.9394 39.9176C91.9906 40.0388 92.017 40.169 92.017 40.3006C92.017 40.4322 91.9906 40.5624 91.9394 40.6836C91.8882 40.8048 91.8132 40.9145 91.7189 41.0062C91.6246 41.0979 91.5128 41.1698 91.3902 41.2176C91.2676 41.2654 91.1367 41.2881 91.0052 41.2844H87.5619C87.301 41.2844 87.0508 41.1807 86.8663 40.9962C86.6818 40.8117 86.5781 40.5615 86.5781 40.3006V40.3006Z" stroke="url(#paint90_radial_21_454)" stroke-width="0.388235"/>
<path d="M82.1641 44.2338C82.1642 43.9729 82.2678 43.7227 82.4523 43.5383C82.6368 43.3538 82.887 43.2501 83.1478 43.25H94.9537C95.2098 43.2572 95.4531 43.364 95.6317 43.5477C95.8103 43.7314 95.9102 43.9776 95.9102 44.2338C95.9102 44.49 95.8103 44.7362 95.6317 44.9199C95.4531 45.1036 95.2098 45.2104 94.9537 45.2176H83.1478C82.8869 45.2176 82.6367 45.1139 82.4522 44.9294C82.2677 44.7449 82.1641 44.4947 82.1641 44.2338V44.2338Z" stroke="url(#paint91_radial_21_454)" stroke-width="0.388235"/>
<path d="M79.2266 48.1674C79.2267 47.9065 79.3303 47.6563 79.5148 47.4718C79.6993 47.2874 79.9495 47.1837 80.2103 47.1836H94.9676C95.2237 47.1908 95.4669 47.2976 95.6455 47.4813C95.8242 47.665 95.9241 47.9111 95.9241 48.1674C95.9241 48.4236 95.8242 48.6697 95.6455 48.8535C95.4669 49.0372 95.2237 49.144 94.9676 49.1512H80.2103C79.9494 49.1512 79.6992 49.0475 79.5147 48.863C79.3302 48.6785 79.2266 48.4283 79.2266 48.1674V48.1674Z" stroke="url(#paint92_radial_21_454)" stroke-width="0.388235"/>
<path d="M76.2656 52.1088C76.2657 51.8479 76.3694 51.5977 76.5539 51.4133C76.7384 51.2288 76.9885 51.1251 77.2494 51.125H94.958C95.2141 51.1322 95.4574 51.239 95.636 51.4227C95.8146 51.6064 95.9145 51.8526 95.9145 52.1088C95.9145 52.365 95.8146 52.6112 95.636 52.7949C95.4574 52.9786 95.2141 53.0854 94.958 53.0926H77.2494C76.9885 53.0926 76.7383 52.9889 76.5538 52.8044C76.3693 52.6199 76.2656 52.3697 76.2656 52.1088V52.1088Z" stroke="url(#paint93_radial_21_454)" stroke-width="0.388235"/>
<path d="M73.3047 56.0428C73.3047 55.4992 73.7449 55.0586 74.2885 55.0586H94.9484C95.206 55.0637 95.4513 55.1696 95.6317 55.3536C95.812 55.5376 95.913 55.7849 95.913 56.0426C95.913 56.3002 95.812 56.5476 95.6317 56.7315C95.4513 56.9155 95.206 57.0214 94.9484 57.0266H74.2885C74.0276 57.0266 73.7773 56.9229 73.5928 56.7384C73.4083 56.5539 73.3047 56.3037 73.3047 56.0428V56.0428Z" stroke="url(#paint94_radial_21_454)" stroke-width="0.388235"/>
<path d="M70.3672 59.976C70.3672 59.4324 70.8074 58.9922 71.351 58.9922H94.9623C95.2232 58.9922 95.4734 59.0958 95.6579 59.2803C95.8424 59.4648 95.9461 59.7151 95.9461 59.976C95.9461 60.2369 95.8424 60.4871 95.6579 60.6716C95.4734 60.8561 95.2232 60.9598 94.9623 60.9598H71.351C71.0901 60.9598 70.8398 60.8561 70.6553 60.6716C70.4708 60.4871 70.3672 60.2369 70.3672 59.976V59.976Z" stroke="url(#paint95_radial_21_454)" stroke-width="0.388235"/>
<path d="M66.9141 63.9096C66.9141 63.366 67.3543 62.9258 67.8978 62.9258H94.9524C95.2133 62.9258 95.4636 63.0294 95.6481 63.2139C95.8326 63.3984 95.9362 63.6487 95.9362 63.9096C95.9362 64.1705 95.8326 64.4207 95.6481 64.6052C95.4636 64.7897 95.2133 64.8934 94.9524 64.8934H67.8978C67.6369 64.8934 67.3867 64.7897 67.2022 64.6052C67.0177 64.4207 66.9141 64.1705 66.9141 63.9096V63.9096Z" stroke="url(#paint96_radial_21_454)" stroke-width="0.388235"/>
<path d="M63.9688 67.8432C63.9688 67.2996 64.409 66.8594 64.9525 66.8594H94.9585C95.2194 66.8594 95.4696 66.963 95.6541 67.1475C95.8386 67.332 95.9423 67.5822 95.9423 67.8432C95.9423 68.1041 95.8386 68.3543 95.6541 68.5388C95.4696 68.7233 95.2194 68.8269 94.9585 68.8269H64.9525C64.6916 68.8269 64.4414 68.7233 64.2569 68.5388C64.0724 68.3543 63.9688 68.1041 63.9688 67.8432V67.8432Z" stroke="url(#paint97_radial_21_454)" stroke-width="0.388235"/>
<path d="M61.0156 71.7846C61.0156 71.241 61.4559 70.8008 61.9994 70.8008H94.9567C95.2176 70.8008 95.4679 70.9044 95.6523 71.0889C95.8368 71.2734 95.9405 71.5237 95.9405 71.7846C95.9405 72.0455 95.8368 72.2957 95.6523 72.4802C95.4679 72.6647 95.2176 72.7684 94.9567 72.7684H61.9994C61.7385 72.7684 61.4883 72.6647 61.3038 72.4802C61.1193 72.2957 61.0156 72.0455 61.0156 71.7846V71.7846Z" stroke="url(#paint98_radial_21_454)" stroke-width="0.388235"/>
<path d="M58.0547 75.7182C58.0548 75.4572 58.1585 75.207 58.3431 75.0225C58.5276 74.838 58.7779 74.7344 59.0389 74.7344H94.9475C95.2037 74.7416 95.4469 74.8484 95.6255 75.0321C95.8041 75.2158 95.9041 75.4619 95.9041 75.7182C95.9041 75.9744 95.8041 76.2205 95.6255 76.4042C95.4469 76.5879 95.2037 76.6948 94.9475 76.7019H59.0389C58.9096 76.702 58.7817 76.6766 58.6623 76.6272C58.5429 76.5778 58.4344 76.5053 58.343 76.4139C58.2516 76.3226 58.1791 76.2141 58.1296 76.0947C58.0801 75.9753 58.0547 75.8474 58.0547 75.7182V75.7182Z" stroke="url(#paint99_radial_21_454)" stroke-width="0.388235"/>
<path d="M55.1094 79.6479C55.1095 79.387 55.2132 79.1368 55.3976 78.9523C55.5821 78.7679 55.8323 78.6642 56.0932 78.6641H94.9536C95.2097 78.6713 95.4529 78.7781 95.6316 78.9618C95.8102 79.1455 95.9101 79.3916 95.9101 79.6479C95.9101 79.9041 95.8102 80.1502 95.6316 80.3339C95.4529 80.5176 95.2097 80.6244 94.9536 80.6316H56.0932C55.8322 80.6316 55.582 80.528 55.3975 80.3435C55.213 80.159 55.1094 79.9088 55.1094 79.6479V79.6479Z" stroke="url(#paint100_radial_21_454)" stroke-width="0.388235"/>
<path d="M52.1562 83.5932C52.1564 83.3323 52.26 83.0821 52.4445 82.8976C52.629 82.7132 52.8792 82.6095 53.14 82.6094H94.9518C95.2079 82.6166 95.4512 82.7234 95.6298 82.9071C95.8084 83.0908 95.9084 83.3369 95.9084 83.5932C95.9084 83.8494 95.8084 84.0955 95.6298 84.2792C95.4512 84.463 95.2079 84.5698 94.9518 84.577H53.14C52.8791 84.577 52.6289 84.4733 52.4444 84.2888C52.2599 84.1043 52.1562 83.8541 52.1562 83.5932V83.5932Z" stroke="url(#paint101_radial_21_454)" stroke-width="0.388235"/>
<path d="M49.1953 87.5229C49.1954 87.262 49.2991 87.0118 49.4836 86.8273C49.668 86.6429 49.9182 86.5392 50.1791 86.5391H94.9422C95.1998 86.5442 95.4451 86.6501 95.6255 86.8341C95.8059 87.018 95.9069 87.2654 95.9069 87.523C95.9069 87.7807 95.8059 88.028 95.6255 88.212C95.4451 88.396 95.1998 88.5019 94.9422 88.507H50.1791C49.9181 88.5069 49.6679 88.4032 49.4834 88.2186C49.299 88.0341 49.1953 87.7838 49.1953 87.5229Z" stroke="url(#paint102_radial_21_454)" stroke-width="0.388235"/>
<path d="M46.25 91.4564C46.25 90.9129 46.6906 90.4727 47.2338 90.4727H121.019C121.28 90.4727 121.53 90.5763 121.714 90.7608C121.899 90.9453 122.002 91.1955 122.002 91.4564C122.002 91.7174 121.899 91.9676 121.714 92.1521C121.53 92.3366 121.28 92.4402 121.019 92.4402H47.2338C46.9729 92.4401 46.7227 92.3364 46.5383 92.152C46.3538 91.9675 46.2501 91.7173 46.25 91.4564V91.4564Z" stroke="url(#paint103_radial_21_454)" stroke-width="0.388235"/>
<path d="M43.3125 95.3978C43.3125 94.8543 43.7531 94.4141 44.2963 94.4141H121.524C121.785 94.4141 122.036 94.5177 122.22 94.7022C122.405 94.8867 122.508 95.1369 122.508 95.3978C122.508 95.6588 122.405 95.909 122.22 96.0935C122.036 96.278 121.785 96.3816 121.524 96.3816H44.2963C44.0354 96.3815 43.7852 96.2779 43.6008 96.0934C43.4163 95.9089 43.3126 95.6587 43.3125 95.3978V95.3978Z" stroke="url(#paint104_radial_21_454)" stroke-width="0.388235"/>
<path d="M42.3203 99.3314C42.3203 98.7879 42.761 98.3477 43.3041 98.3477H119.057C119.317 98.3477 119.568 98.4513 119.752 98.6358C119.937 98.8203 120.04 99.0705 120.04 99.3314C120.04 99.5924 119.937 99.8426 119.752 100.027C119.568 100.212 119.317 100.315 119.057 100.315H43.3041C43.0432 100.315 42.793 100.211 42.6086 100.027C42.4241 99.8425 42.3204 99.5923 42.3203 99.3314V99.3314Z" stroke="url(#paint105_radial_21_454)" stroke-width="0.388235"/>
<path d="M46.75 103.265C46.75 102.722 47.1906 102.281 47.7338 102.281H119.059C119.32 102.281 119.57 102.385 119.755 102.569C119.939 102.754 120.043 103.004 120.043 103.265C120.043 103.526 119.939 103.776 119.755 103.961C119.57 104.145 119.32 104.249 119.059 104.249H47.7338C47.4729 104.249 47.2227 104.145 47.0383 103.961C46.8538 103.776 46.7501 103.526 46.75 103.265V103.265Z" stroke="url(#paint106_radial_21_454)" stroke-width="0.388235"/>
<path d="M115.605 107.199C115.605 107.742 115.165 108.182 114.622 108.182H69.8588C69.7296 108.182 69.6017 108.157 69.4823 108.108C69.3629 108.058 69.2545 107.986 69.1631 107.894C69.0718 107.803 68.9993 107.694 68.9499 107.575C68.9004 107.456 68.875 107.328 68.875 107.199C68.875 107.069 68.9004 106.942 68.9499 106.822C68.9993 106.703 69.0718 106.594 69.1631 106.503C69.2545 106.412 69.3629 106.339 69.4823 106.29C69.6017 106.24 69.7296 106.215 69.8588 106.215H114.622C115.165 106.215 115.605 106.655 115.605 107.199V107.199Z" stroke="url(#paint107_radial_21_454)" stroke-width="0.388235"/>
<path d="M112.654 111.132C112.654 111.676 112.214 112.116 111.67 112.116H69.8588C69.5979 112.116 69.3476 112.012 69.1631 111.828C68.9786 111.643 68.875 111.393 68.875 111.132C68.875 110.871 68.9786 110.621 69.1631 110.437C69.3476 110.252 69.5979 110.148 69.8588 110.148H111.67C112.214 110.148 112.654 110.589 112.654 111.132Z" stroke="url(#paint108_radial_21_454)" stroke-width="0.388235"/>
<path d="M109.703 115.066C109.703 115.609 109.262 116.05 108.719 116.05H69.8588C69.5979 116.05 69.3476 115.946 69.1631 115.761C68.9786 115.577 68.875 115.327 68.875 115.066C68.875 114.805 68.9786 114.555 69.1631 114.37C69.3476 114.186 69.5979 114.082 69.8588 114.082H108.719C109.262 114.082 109.703 114.523 109.703 115.066Z" stroke="url(#paint109_radial_21_454)" stroke-width="0.388235"/>
<path d="M106.751 119.007C106.751 119.551 106.311 119.991 105.767 119.991H69.8588C69.5979 119.991 69.3476 119.887 69.1631 119.703C68.9786 119.518 68.875 119.268 68.875 119.007C68.875 118.746 68.9786 118.496 69.1631 118.312C69.3476 118.127 69.5979 118.023 69.8588 118.023H105.767C106.028 118.024 106.278 118.127 106.463 118.312C106.647 118.496 106.751 118.746 106.751 119.007V119.007Z" stroke="url(#paint110_radial_21_454)" stroke-width="0.388235"/>
<path d="M103.8 122.941C103.8 123.202 103.696 123.452 103.512 123.637C103.327 123.821 103.077 123.925 102.816 123.925H69.859C69.598 123.925 69.3477 123.821 69.1632 123.637C68.9787 123.452 68.875 123.202 68.875 122.941C68.875 122.68 68.9787 122.43 69.1632 122.245C69.3477 122.061 69.598 121.957 69.859 121.957H102.816C103.077 121.957 103.327 122.061 103.512 122.245C103.696 122.43 103.8 122.68 103.8 122.941V122.941Z" stroke="url(#paint111_radial_21_454)" stroke-width="0.388235"/>
<path d="M100.849 126.874C100.848 127.135 100.745 127.385 100.56 127.57C100.376 127.754 100.126 127.858 99.8647 127.858H69.8588C69.5979 127.858 69.3476 127.755 69.1631 127.57C68.9786 127.386 68.875 127.135 68.875 126.874C68.875 126.613 68.9786 126.363 69.1631 126.179C69.3476 125.994 69.5979 125.891 69.8588 125.891H99.8647C100.126 125.891 100.376 125.994 100.56 126.179C100.745 126.363 100.849 126.613 100.849 126.874Z" stroke="url(#paint112_radial_21_454)" stroke-width="0.388235"/>
<path d="M97.8971 130.808C97.897 131.069 97.7934 131.319 97.6089 131.504C97.4244 131.688 97.1742 131.792 96.9134 131.792H69.8588C69.5979 131.792 69.3476 131.688 69.1631 131.504C68.9786 131.319 68.875 131.069 68.875 130.808C68.875 130.547 68.9786 130.297 69.1631 130.112C69.3476 129.928 69.5979 129.824 69.8588 129.824H96.9134C97.1743 129.824 97.4245 129.928 97.609 130.112C97.7935 130.297 97.8971 130.547 97.8971 130.808V130.808Z" stroke="url(#paint113_radial_21_454)" stroke-width="0.388235"/>
<path d="M94.4539 134.749C94.4538 135.01 94.3501 135.26 94.1656 135.445C93.9812 135.629 93.731 135.733 93.4701 135.733H69.8588C69.5979 135.733 69.3476 135.63 69.1631 135.445C68.9786 135.261 68.875 135.01 68.875 134.749C68.875 134.488 68.9786 134.238 69.1631 134.054C69.3476 133.869 69.5979 133.766 69.8588 133.766H93.4701C93.731 133.766 93.9812 133.869 94.1657 134.054C94.3502 134.238 94.4539 134.488 94.4539 134.749V134.749Z" stroke="url(#paint114_radial_21_454)" stroke-width="0.388235"/>
<path d="M91.5025 138.683C91.5025 139.227 91.0619 139.667 90.5183 139.667H69.8588C69.5979 139.667 69.3476 139.563 69.1631 139.379C68.9786 139.194 68.875 138.944 68.875 138.683C68.875 138.422 68.9786 138.172 69.1631 137.987C69.3476 137.803 69.5979 137.699 69.8588 137.699H90.5183C91.0619 137.699 91.5025 138.14 91.5025 138.683Z" stroke="url(#paint115_radial_21_454)" stroke-width="0.388235"/>
<path d="M88.5508 142.617C88.5508 143.16 88.1105 143.6 87.567 143.6H69.8588C69.5979 143.6 69.3476 143.497 69.1631 143.312C68.9786 143.128 68.875 142.878 68.875 142.617C68.875 142.356 68.9786 142.105 69.1631 141.921C69.3476 141.736 69.5979 141.633 69.8588 141.633H87.567C88.1105 141.633 88.5508 142.073 88.5508 142.617Z" stroke="url(#paint116_radial_21_454)" stroke-width="0.388235"/>
<path d="M85.5994 146.55C85.5994 147.094 85.1591 147.534 84.6156 147.534H69.8588C69.5979 147.534 69.3476 147.43 69.1631 147.246C68.9786 147.061 68.875 146.811 68.875 146.55C68.875 146.289 68.9786 146.039 69.1631 145.855C69.3476 145.67 69.5979 145.566 69.8588 145.566H84.6156C85.1591 145.566 85.5994 146.007 85.5994 146.55Z" stroke="url(#paint117_radial_21_454)" stroke-width="0.388235"/>
<path d="M82.648 150.484C82.648 151.027 82.2078 151.468 81.6642 151.468H69.8588C69.5979 151.468 69.3476 151.364 69.1631 151.179C68.9786 150.995 68.875 150.745 68.875 150.484C68.875 150.223 68.9786 149.973 69.1631 149.788C69.3476 149.604 69.5979 149.5 69.8588 149.5H81.6642C82.2078 149.5 82.648 149.941 82.648 150.484V150.484Z" stroke="url(#paint118_radial_21_454)" stroke-width="0.388235"/>
<path d="M78.2392 154.413C78.2392 154.957 77.7989 155.398 77.2554 155.398H73.8121C73.5511 155.398 73.3009 155.294 73.1163 155.109C72.9318 154.925 72.8281 154.675 72.8281 154.414C72.8281 154.153 72.9318 153.902 73.1163 153.718C73.3009 153.533 73.5511 153.43 73.8121 153.43H77.2554C77.7989 153.43 78.2392 153.87 78.2392 154.413Z" stroke="url(#paint119_radial_21_454)" stroke-width="0.388235"/>
</g>
<defs>
<filter id="filter0_f_21_454" x="0.0026474" y="-3.00126" width="164.823" height="200.717" filterUnits="userSpaceOnUse" color-interpolation-filters="sRGB">
<feFlood flood-opacity="0" result="BackgroundImageFix"/>
<feBlend mode="normal" in="SourceGraphic" in2="BackgroundImageFix" result="shape"/>
<feGaussianBlur stdDeviation="19.4118" result="effect1_foregroundBlur_21_454"/>
</filter>
<linearGradient id="paint0_linear_21_454" x1="-0.0103132" y1="-3.00086" x2="0.377922" y2="-3.00086" gradientUnits="userSpaceOnUse">
<stop stop-color="#7877C6"/>
<stop offset="1" stop-color="#6663F6"/>
</linearGradient>
<linearGradient id="paint1_linear_21_454" x1="0.0128478" y1="-3.00857" x2="0.401083" y2="-3.00857" gradientUnits="userSpaceOnUse">
<stop stop-color="#7877C6"/>
<stop offset="1" stop-color="#6663F6"/>
</linearGradient>
<linearGradient id="paint2_linear_21_454" x1="0.00260484" y1="-3.00281" x2="0.39084" y2="-3.00281" gradientUnits="userSpaceOnUse">
<stop stop-color="#7877C6"/>
<stop offset="1" stop-color="#6663F6"/>
</linearGradient>
<linearGradient id="paint3_linear_21_454" x1="-0.00531074" y1="-3.00289" x2="0.382925" y2="-3.00289" gradientUnits="userSpaceOnUse">
<stop stop-color="#7877C6"/>
<stop offset="1" stop-color="#6663F6"/>
</linearGradient>
<linearGradient id="paint4_linear_21_454" x1="0.0164648" y1="-3.00429" x2="0.4047" y2="-3.00429" gradientUnits="userSpaceOnUse">
<stop stop-color="#7877C6"/>
<stop offset="1" stop-color="#6663F6"/>
</linearGradient>
<linearGradient id="paint5_linear_21_454" x1="-0.00530403" y1="-3.00223" x2="0.382931" y2="-3.00223" gradientUnits="userSpaceOnUse">
<stop stop-color="#7877C6"/>
<stop offset="1" stop-color="#6663F6"/>
</linearGradient>
<linearGradient id="paint6_linear_21_454" x1="0.00688391" y1="-2.99803" x2="0.395119" y2="-2.99803" gradientUnits="userSpaceOnUse">
<stop stop-color="#7877C6"/>
<stop offset="1" stop-color="#6663F6"/>
</linearGradient>
<linearGradient id="paint7_linear_21_454" x1="-0.00531084" y1="-2.99978" x2="0.382924" y2="-2.99978" gradientUnits="userSpaceOnUse">
<stop stop-color="#7877C6"/>
<stop offset="1" stop-color="#6663F6"/>
</linearGradient>
<linearGradient id="paint8_linear_21_454" x1="-0.00266267" y1="-2.99967" x2="0.385573" y2="-2.99967" gradientUnits="userSpaceOnUse">
<stop stop-color="#7877C6"/>
<stop offset="1" stop-color="#6663F6"/>
</linearGradient>
<linearGradient id="paint9_linear_21_454" x1="-0.00530754" y1="-2.99823" x2="0.382928" y2="-2.99823" gradientUnits="userSpaceOnUse">
<stop stop-color="#7877C6"/>
<stop offset="1" stop-color="#6663F6"/>
</linearGradient>
<linearGradient id="paint10_linear_21_454" x1="0.0111897" y1="-3.00153" x2="0.399425" y2="-3.00153" gradientUnits="userSpaceOnUse">
<stop stop-color="#7877C6"/>
<stop offset="1" stop-color="#6663F6"/>
</linearGradient>
<linearGradient id="paint11_linear_21_454" x1="-0.00531751" y1="-2.99667" x2="0.382918" y2="-2.99667" gradientUnits="userSpaceOnUse">
<stop stop-color="#7877C6"/>
<stop offset="1" stop-color="#6663F6"/>
</linearGradient>
<linearGradient id="paint12_linear_21_454" x1="0.00132172" y1="-3.00308" x2="0.389557" y2="-3.00308" gradientUnits="userSpaceOnUse">
<stop stop-color="#7877C6"/>
<stop offset="1" stop-color="#6663F6"/>
</linearGradient>
<linearGradient id="paint13_linear_21_454" x1="-0.00532054" y1="-3.00294" x2="0.382915" y2="-3.00294" gradientUnits="userSpaceOnUse">
<stop stop-color="#7877C6"/>
<stop offset="1" stop-color="#6663F6"/>
</linearGradient>
<linearGradient id="paint14_linear_21_454" x1="0.00737637" y1="-3.00464" x2="0.395612" y2="-3.00464" gradientUnits="userSpaceOnUse">
<stop stop-color="#7877C6"/>
<stop offset="1" stop-color="#6663F6"/>
</linearGradient>
<linearGradient id="paint15_linear_21_454" x1="-0.00530769" y1="-3.00138" x2="0.382928" y2="-3.00138" gradientUnits="userSpaceOnUse">
<stop stop-color="#7877C6"/>
<stop offset="1" stop-color="#6663F6"/>
</linearGradient>
<linearGradient id="paint16_linear_21_454" x1="0.00562063" y1="-2.99838" x2="0.393856" y2="-2.99838" gradientUnits="userSpaceOnUse">
<stop stop-color="#7877C6"/>
<stop offset="1" stop-color="#6663F6"/>
</linearGradient>
<linearGradient id="paint17_linear_21_454" x1="-0.00512807" y1="-2.99961" x2="0.383107" y2="-2.99961" gradientUnits="userSpaceOnUse">
<stop stop-color="#7877C6"/>
<stop offset="1" stop-color="#6663F6"/>
</linearGradient>
<linearGradient id="paint18_linear_21_454" x1="-0.00356931" y1="-2.99993" x2="0.384666" y2="-2.99993" gradientUnits="userSpaceOnUse">
<stop stop-color="#7877C6"/>
<stop offset="1" stop-color="#6663F6"/>
</linearGradient>
<linearGradient id="paint19_linear_21_454" x1="-0.00531611" y1="-2.99861" x2="0.382919" y2="-2.99861" gradientUnits="userSpaceOnUse">
<stop stop-color="#7877C6"/>
<stop offset="1" stop-color="#6663F6"/>
</linearGradient>
<linearGradient id="paint20_linear_21_454" x1="0.0024806" y1="-3.00564" x2="0.390716" y2="-3.00564" gradientUnits="userSpaceOnUse">
<stop stop-color="#7877C6"/>
<stop offset="1" stop-color="#6663F6"/>
</linearGradient>
<linearGradient id="paint21_linear_21_454" x1="-0.00530959" y1="-3.00414" x2="0.382926" y2="-3.00414" gradientUnits="userSpaceOnUse">
<stop stop-color="#7877C6"/>
<stop offset="1" stop-color="#6663F6"/>
</linearGradient>
<linearGradient id="paint22_linear_21_454" x1="0.000718961" y1="-2.99548" x2="0.388954" y2="-2.99548" gradientUnits="userSpaceOnUse">
<stop stop-color="#7877C6"/>
<stop offset="1" stop-color="#6663F6"/>
</linearGradient>
<linearGradient id="paint23_linear_21_454" x1="-0.00532661" y1="-3.00259" x2="0.382909" y2="-3.00259" gradientUnits="userSpaceOnUse">
<stop stop-color="#7877C6"/>
<stop offset="1" stop-color="#6663F6"/>
</linearGradient>
<linearGradient id="paint24_linear_21_454" x1="-0.00884986" y1="-3.00081" x2="0.379385" y2="-3.00081" gradientUnits="userSpaceOnUse">
<stop stop-color="#7877C6"/>
<stop offset="1" stop-color="#6663F6"/>
</linearGradient>
<linearGradient id="paint25_linear_21_454" x1="-0.00532461" y1="-3.00103" x2="0.382911" y2="-3.00103" gradientUnits="userSpaceOnUse">
<stop stop-color="#7877C6"/>
<stop offset="1" stop-color="#6663F6"/>
</linearGradient>
<linearGradient id="paint26_linear_21_454" x1="-0.00280259" y1="-3.00263" x2="0.385433" y2="-3.00263" gradientUnits="userSpaceOnUse">
<stop stop-color="#7877C6"/>
<stop offset="1" stop-color="#6663F6"/>
</linearGradient>
<linearGradient id="paint27_linear_21_454" x1="0.0110684" y1="-2.99637" x2="0.399304" y2="-2.99637" gradientUnits="userSpaceOnUse">
<stop stop-color="#7877C6"/>
<stop offset="1" stop-color="#6663F6"/>
</linearGradient>
<linearGradient id="paint28_linear_21_454" x1="0.00267038" y1="-2.99792" x2="0.390906" y2="-2.99792" gradientUnits="userSpaceOnUse">
<stop stop-color="#7877C6"/>
<stop offset="1" stop-color="#6663F6"/>
</linearGradient>
<linearGradient id="paint29_linear_21_454" x1="0.0053073" y1="-2.99948" x2="0.393543" y2="-2.99948" gradientUnits="userSpaceOnUse">
<stop stop-color="#7877C6"/>
<stop offset="1" stop-color="#6663F6"/>
</linearGradient>
<linearGradient id="paint30_linear_21_454" x1="-0.0103132" y1="-3.00086" x2="0.377922" y2="-3.00086" gradientUnits="userSpaceOnUse">
<stop stop-color="#7877C6"/>
<stop offset="1" stop-color="#6663F6"/>
</linearGradient>
<linearGradient id="paint31_linear_21_454" x1="0.0128478" y1="-3.00857" x2="0.401083" y2="-3.00857" gradientUnits="userSpaceOnUse">
<stop stop-color="#7877C6"/>
<stop offset="1" stop-color="#6663F6"/>
</linearGradient>
<linearGradient id="paint32_linear_21_454" x1="0.00260484" y1="-3.00281" x2="0.39084" y2="-3.00281" gradientUnits="userSpaceOnUse">
<stop stop-color="#7877C6"/>
<stop offset="1" stop-color="#6663F6"/>
</linearGradient>
<linearGradient id="paint33_linear_21_454" x1="-0.00531074" y1="-3.00289" x2="0.382925" y2="-3.00289" gradientUnits="userSpaceOnUse">
<stop stop-color="#7877C6"/>
<stop offset="1" stop-color="#6663F6"/>
</linearGradient>
<linearGradient id="paint34_linear_21_454" x1="0.0164648" y1="-3.00429" x2="0.4047" y2="-3.00429" gradientUnits="userSpaceOnUse">
<stop stop-color="#7877C6"/>
<stop offset="1" stop-color="#6663F6"/>
</linearGradient>
<linearGradient id="paint35_linear_21_454" x1="-0.00530403" y1="-3.00223" x2="0.382931" y2="-3.00223" gradientUnits="userSpaceOnUse">
<stop stop-color="#7877C6"/>
<stop offset="1" stop-color="#6663F6"/>
</linearGradient>
<linearGradient id="paint36_linear_21_454" x1="0.00688391" y1="-2.99803" x2="0.395119" y2="-2.99803" gradientUnits="userSpaceOnUse">
<stop stop-color="#7877C6"/>
<stop offset="1" stop-color="#6663F6"/>
</linearGradient>
<linearGradient id="paint37_linear_21_454" x1="-0.00531084" y1="-2.99978" x2="0.382924" y2="-2.99978" gradientUnits="userSpaceOnUse">
<stop stop-color="#7877C6"/>
<stop offset="1" stop-color="#6663F6"/>
</linearGradient>
<linearGradient id="paint38_linear_21_454" x1="-0.00266267" y1="-2.99967" x2="0.385573" y2="-2.99967" gradientUnits="userSpaceOnUse">
<stop stop-color="#7877C6"/>
<stop offset="1" stop-color="#6663F6"/>
</linearGradient>
<linearGradient id="paint39_linear_21_454" x1="-0.00530754" y1="-2.99823" x2="0.382928" y2="-2.99823" gradientUnits="userSpaceOnUse">
<stop stop-color="#7877C6"/>
<stop offset="1" stop-color="#6663F6"/>
</linearGradient>
<linearGradient id="paint40_linear_21_454" x1="0.0111897" y1="-3.00153" x2="0.399425" y2="-3.00153" gradientUnits="userSpaceOnUse">
<stop stop-color="#7877C6"/>
<stop offset="1" stop-color="#6663F6"/>
</linearGradient>
<linearGradient id="paint41_linear_21_454" x1="-0.00531751" y1="-2.99667" x2="0.382918" y2="-2.99667" gradientUnits="userSpaceOnUse">
<stop stop-color="#7877C6"/>
<stop offset="1" stop-color="#6663F6"/>
</linearGradient>
<linearGradient id="paint42_linear_21_454" x1="0.00132172" y1="-3.00308" x2="0.389557" y2="-3.00308" gradientUnits="userSpaceOnUse">
<stop stop-color="#7877C6"/>
<stop offset="1" stop-color="#6663F6"/>
</linearGradient>
<linearGradient id="paint43_linear_21_454" x1="-0.00532054" y1="-3.00294" x2="0.382915" y2="-3.00294" gradientUnits="userSpaceOnUse">
<stop stop-color="#7877C6"/>
<stop offset="1" stop-color="#6663F6"/>
</linearGradient>
<linearGradient id="paint44_linear_21_454" x1="0.00737637" y1="-3.00464" x2="0.395612" y2="-3.00464" gradientUnits="userSpaceOnUse">
<stop stop-color="#7877C6"/>
<stop offset="1" stop-color="#6663F6"/>
</linearGradient>
<linearGradient id="paint45_linear_21_454" x1="-0.00530769" y1="-3.00138" x2="0.382928" y2="-3.00138" gradientUnits="userSpaceOnUse">
<stop stop-color="#7877C6"/>
<stop offset="1" stop-color="#6663F6"/>
</linearGradient>
<linearGradient id="paint46_linear_21_454" x1="0.00562063" y1="-2.99838" x2="0.393856" y2="-2.99838" gradientUnits="userSpaceOnUse">
<stop stop-color="#7877C6"/>
<stop offset="1" stop-color="#6663F6"/>
</linearGradient>
<linearGradient id="paint47_linear_21_454" x1="-0.00512807" y1="-2.99961" x2="0.383107" y2="-2.99961" gradientUnits="userSpaceOnUse">
<stop stop-color="#7877C6"/>
<stop offset="1" stop-color="#6663F6"/>
</linearGradient>
<linearGradient id="paint48_linear_21_454" x1="-0.00356931" y1="-2.99993" x2="0.384666" y2="-2.99993" gradientUnits="userSpaceOnUse">
<stop stop-color="#7877C6"/>
<stop offset="1" stop-color="#6663F6"/>
</linearGradient>
<linearGradient id="paint49_linear_21_454" x1="-0.00531611" y1="-2.99861" x2="0.382919" y2="-2.99861" gradientUnits="userSpaceOnUse">
<stop stop-color="#7877C6"/>
<stop offset="1" stop-color="#6663F6"/>
</linearGradient>
<linearGradient id="paint50_linear_21_454" x1="0.0024806" y1="-3.00564" x2="0.390716" y2="-3.00564" gradientUnits="userSpaceOnUse">
<stop stop-color="#7877C6"/>
<stop offset="1" stop-color="#6663F6"/>
</linearGradient>
<linearGradient id="paint51_linear_21_454" x1="-0.00530959" y1="-3.00414" x2="0.382926" y2="-3.00414" gradientUnits="userSpaceOnUse">
<stop stop-color="#7877C6"/>
<stop offset="1" stop-color="#6663F6"/>
</linearGradient>
<linearGradient id="paint52_linear_21_454" x1="0.000718961" y1="-2.99548" x2="0.388954" y2="-2.99548" gradientUnits="userSpaceOnUse">
<stop stop-color="#7877C6"/>
<stop offset="1" stop-color="#6663F6"/>
</linearGradient>
<linearGradient id="paint53_linear_21_454" x1="-0.00532661" y1="-3.00259" x2="0.382909" y2="-3.00259" gradientUnits="userSpaceOnUse">
<stop stop-color="#7877C6"/>
<stop offset="1" stop-color="#6663F6"/>
</linearGradient>
<linearGradient id="paint54_linear_21_454" x1="-0.00884986" y1="-3.00081" x2="0.379385" y2="-3.00081" gradientUnits="userSpaceOnUse">
<stop stop-color="#7877C6"/>
<stop offset="1" stop-color="#6663F6"/>
</linearGradient>
<linearGradient id="paint55_linear_21_454" x1="-0.00532461" y1="-3.00103" x2="0.382911" y2="-3.00103" gradientUnits="userSpaceOnUse">
<stop stop-color="#7877C6"/>
<stop offset="1" stop-color="#6663F6"/>
</linearGradient>
<linearGradient id="paint56_linear_21_454" x1="-0.00280259" y1="-3.00263" x2="0.385433" y2="-3.00263" gradientUnits="userSpaceOnUse">
<stop stop-color="#7877C6"/>
<stop offset="1" stop-color="#6663F6"/>
</linearGradient>
<linearGradient id="paint57_linear_21_454" x1="0.0110684" y1="-2.99637" x2="0.399304" y2="-2.99637" gradientUnits="userSpaceOnUse">
<stop stop-color="#7877C6"/>
<stop offset="1" stop-color="#6663F6"/>
</linearGradient>
<linearGradient id="paint58_linear_21_454" x1="0.00267038" y1="-2.99792" x2="0.390906" y2="-2.99792" gradientUnits="userSpaceOnUse">
<stop stop-color="#7877C6"/>
<stop offset="1" stop-color="#6663F6"/>
</linearGradient>
<linearGradient id="paint59_linear_21_454" x1="0.0053073" y1="-2.99948" x2="0.393543" y2="-2.99948" gradientUnits="userSpaceOnUse">
<stop stop-color="#7877C6"/>
<stop offset="1" stop-color="#6663F6"/>
</linearGradient>
<linearGradient id="paint60_linear_21_454" x1="-0.0103132" y1="-3.00086" x2="0.377922" y2="-3.00086" gradientUnits="userSpaceOnUse">
<stop stop-color="#7877C6"/>
<stop offset="1" stop-color="#6663F6"/>
</linearGradient>
<linearGradient id="paint61_linear_21_454" x1="0.0128478" y1="-3.00857" x2="0.401083" y2="-3.00857" gradientUnits="userSpaceOnUse">
<stop stop-color="#7877C6"/>
<stop offset="1" stop-color="#6663F6"/>
</linearGradient>
<linearGradient id="paint62_linear_21_454" x1="0.00260484" y1="-3.00281" x2="0.39084" y2="-3.00281" gradientUnits="userSpaceOnUse">
<stop stop-color="#7877C6"/>
<stop offset="1" stop-color="#6663F6"/>
</linearGradient>
<linearGradient id="paint63_linear_21_454" x1="-0.00531074" y1="-3.00289" x2="0.382925" y2="-3.00289" gradientUnits="userSpaceOnUse">
<stop stop-color="#7877C6"/>
<stop offset="1" stop-color="#6663F6"/>
</linearGradient>
<linearGradient id="paint64_linear_21_454" x1="0.0164648" y1="-3.00429" x2="0.4047" y2="-3.00429" gradientUnits="userSpaceOnUse">
<stop stop-color="#7877C6"/>
<stop offset="1" stop-color="#6663F6"/>
</linearGradient>
<linearGradient id="paint65_linear_21_454" x1="-0.00530403" y1="-3.00223" x2="0.382931" y2="-3.00223" gradientUnits="userSpaceOnUse">
<stop stop-color="#7877C6"/>
<stop offset="1" stop-color="#6663F6"/>
</linearGradient>
<linearGradient id="paint66_linear_21_454" x1="0.00688391" y1="-2.99803" x2="0.395119" y2="-2.99803" gradientUnits="userSpaceOnUse">
<stop stop-color="#7877C6"/>
<stop offset="1" stop-color="#6663F6"/>
</linearGradient>
<linearGradient id="paint67_linear_21_454" x1="-0.00531084" y1="-2.99978" x2="0.382924" y2="-2.99978" gradientUnits="userSpaceOnUse">
<stop stop-color="#7877C6"/>
<stop offset="1" stop-color="#6663F6"/>
</linearGradient>
<linearGradient id="paint68_linear_21_454" x1="-0.00266267" y1="-2.99967" x2="0.385573" y2="-2.99967" gradientUnits="userSpaceOnUse">
<stop stop-color="#7877C6"/>
<stop offset="1" stop-color="#6663F6"/>
</linearGradient>
<linearGradient id="paint69_linear_21_454" x1="-0.00530754" y1="-2.99823" x2="0.382928" y2="-2.99823" gradientUnits="userSpaceOnUse">
<stop stop-color="#7877C6"/>
<stop offset="1" stop-color="#6663F6"/>
</linearGradient>
<linearGradient id="paint70_linear_21_454" x1="0.0111897" y1="-3.00153" x2="0.399425" y2="-3.00153" gradientUnits="userSpaceOnUse">
<stop stop-color="#7877C6"/>
<stop offset="1" stop-color="#6663F6"/>
</linearGradient>
<linearGradient id="paint71_linear_21_454" x1="-0.00531751" y1="-2.99667" x2="0.382918" y2="-2.99667" gradientUnits="userSpaceOnUse">
<stop stop-color="#7877C6"/>
<stop offset="1" stop-color="#6663F6"/>
</linearGradient>
<linearGradient id="paint72_linear_21_454" x1="0.00132172" y1="-3.00308" x2="0.389557" y2="-3.00308" gradientUnits="userSpaceOnUse">
<stop stop-color="#7877C6"/>
<stop offset="1" stop-color="#6663F6"/>
</linearGradient>
<linearGradient id="paint73_linear_21_454" x1="-0.00532054" y1="-3.00294" x2="0.382915" y2="-3.00294" gradientUnits="userSpaceOnUse">
<stop stop-color="#7877C6"/>
<stop offset="1" stop-color="#6663F6"/>
</linearGradient>
<linearGradient id="paint74_linear_21_454" x1="0.00737637" y1="-3.00464" x2="0.395612" y2="-3.00464" gradientUnits="userSpaceOnUse">
<stop stop-color="#7877C6"/>
<stop offset="1" stop-color="#6663F6"/>
</linearGradient>
<linearGradient id="paint75_linear_21_454" x1="-0.00530769" y1="-3.00138" x2="0.382928" y2="-3.00138" gradientUnits="userSpaceOnUse">
<stop stop-color="#7877C6"/>
<stop offset="1" stop-color="#6663F6"/>
</linearGradient>
<linearGradient id="paint76_linear_21_454" x1="0.00562063" y1="-2.99838" x2="0.393856" y2="-2.99838" gradientUnits="userSpaceOnUse">
<stop stop-color="#7877C6"/>
<stop offset="1" stop-color="#6663F6"/>
</linearGradient>
<linearGradient id="paint77_linear_21_454" x1="-0.00512807" y1="-2.99961" x2="0.383107" y2="-2.99961" gradientUnits="userSpaceOnUse">
<stop stop-color="#7877C6"/>
<stop offset="1" stop-color="#6663F6"/>
</linearGradient>
<linearGradient id="paint78_linear_21_454" x1="-0.00356931" y1="-2.99993" x2="0.384666" y2="-2.99993" gradientUnits="userSpaceOnUse">
<stop stop-color="#7877C6"/>
<stop offset="1" stop-color="#6663F6"/>
</linearGradient>
<linearGradient id="paint79_linear_21_454" x1="-0.00531611" y1="-2.99861" x2="0.382919" y2="-2.99861" gradientUnits="userSpaceOnUse">
<stop stop-color="#7877C6"/>
<stop offset="1" stop-color="#6663F6"/>
</linearGradient>
<linearGradient id="paint80_linear_21_454" x1="0.0024806" y1="-3.00564" x2="0.390716" y2="-3.00564" gradientUnits="userSpaceOnUse">
<stop stop-color="#7877C6"/>
<stop offset="1" stop-color="#6663F6"/>
</linearGradient>
<linearGradient id="paint81_linear_21_454" x1="-0.00530959" y1="-3.00414" x2="0.382926" y2="-3.00414" gradientUnits="userSpaceOnUse">
<stop stop-color="#7877C6"/>
<stop offset="1" stop-color="#6663F6"/>
</linearGradient>
<linearGradient id="paint82_linear_21_454" x1="0.000718961" y1="-2.99548" x2="0.388954" y2="-2.99548" gradientUnits="userSpaceOnUse">
<stop stop-color="#7877C6"/>
<stop offset="1" stop-color="#6663F6"/>
</linearGradient>
<linearGradient id="paint83_linear_21_454" x1="-0.00532661" y1="-3.00259" x2="0.382909" y2="-3.00259" gradientUnits="userSpaceOnUse">
<stop stop-color="#7877C6"/>
<stop offset="1" stop-color="#6663F6"/>
</linearGradient>
<linearGradient id="paint84_linear_21_454" x1="-0.00884986" y1="-3.00081" x2="0.379385" y2="-3.00081" gradientUnits="userSpaceOnUse">
<stop stop-color="#7877C6"/>
<stop offset="1" stop-color="#6663F6"/>
</linearGradient>
<linearGradient id="paint85_linear_21_454" x1="-0.00532461" y1="-3.00103" x2="0.382911" y2="-3.00103" gradientUnits="userSpaceOnUse">
<stop stop-color="#7877C6"/>
<stop offset="1" stop-color="#6663F6"/>
</linearGradient>
<linearGradient id="paint86_linear_21_454" x1="-0.00280259" y1="-3.00263" x2="0.385433" y2="-3.00263" gradientUnits="userSpaceOnUse">
<stop stop-color="#7877C6"/>
<stop offset="1" stop-color="#6663F6"/>
</linearGradient>
<linearGradient id="paint87_linear_21_454" x1="0.0110684" y1="-2.99637" x2="0.399304" y2="-2.99637" gradientUnits="userSpaceOnUse">
<stop stop-color="#7877C6"/>
<stop offset="1" stop-color="#6663F6"/>
</linearGradient>
<linearGradient id="paint88_linear_21_454" x1="0.00267038" y1="-2.99792" x2="0.390906" y2="-2.99792" gradientUnits="userSpaceOnUse">
<stop stop-color="#7877C6"/>
<stop offset="1" stop-color="#6663F6"/>
</linearGradient>
<linearGradient id="paint89_linear_21_454" x1="0.0053073" y1="-2.99948" x2="0.393543" y2="-2.99948" gradientUnits="userSpaceOnUse">
<stop stop-color="#7877C6"/>
<stop offset="1" stop-color="#6663F6"/>
</linearGradient>
<radialGradient id="paint90_radial_21_454" cx="0" cy="0" r="1" gradientUnits="userSpaceOnUse" gradientTransform="translate(82.3972 51.4538) rotate(90) scale(112.099 77.4241)">
<stop stop-color="white"/>
<stop offset="1" stop-color="white" stop-opacity="0"/>
</radialGradient>
<radialGradient id="paint91_radial_21_454" cx="0" cy="0" r="1" gradientUnits="userSpaceOnUse" gradientTransform="translate(82.4102 51.4519) rotate(90) scale(112.099 77.4242)">
<stop stop-color="white"/>
<stop offset="1" stop-color="white" stop-opacity="0"/>
</radialGradient>
<radialGradient id="paint92_radial_21_454" cx="0" cy="0" r="1" gradientUnits="userSpaceOnUse" gradientTransform="translate(82.4241 51.4503) rotate(90) scale(112.099 77.4242)">
<stop stop-color="white"/>
<stop offset="1" stop-color="white" stop-opacity="0"/>
</radialGradient>
<radialGradient id="paint93_radial_21_454" cx="0" cy="0" r="1" gradientUnits="userSpaceOnUse" gradientTransform="translate(82.4145 51.4566) rotate(90) scale(112.099 77.4242)">
<stop stop-color="white"/>
<stop offset="1" stop-color="white" stop-opacity="0"/>
</radialGradient>
<radialGradient id="paint94_radial_21_454" cx="0" cy="0" r="1" gradientUnits="userSpaceOnUse" gradientTransform="translate(82.4049 51.455) rotate(90) scale(112.099 77.4242)">
<stop stop-color="white"/>
<stop offset="1" stop-color="white" stop-opacity="0"/>
</radialGradient>
<radialGradient id="paint95_radial_21_454" cx="0" cy="0" r="1" gradientUnits="userSpaceOnUse" gradientTransform="translate(82.4188 51.4531) rotate(90) scale(112.099 77.4242)">
<stop stop-color="white"/>
<stop offset="1" stop-color="white" stop-opacity="0"/>
</radialGradient>
<radialGradient id="paint96_radial_21_454" cx="0" cy="0" r="1" gradientUnits="userSpaceOnUse" gradientTransform="translate(82.4089 51.4515) rotate(90) scale(112.099 77.4242)">
<stop stop-color="white"/>
<stop offset="1" stop-color="white" stop-opacity="0"/>
</radialGradient>
<radialGradient id="paint97_radial_21_454" cx="0" cy="0" r="1" gradientUnits="userSpaceOnUse" gradientTransform="translate(82.415 51.45) rotate(90) scale(112.099 77.4242)">
<stop stop-color="white"/>
<stop offset="1" stop-color="white" stop-opacity="0"/>
</radialGradient>
<radialGradient id="paint98_radial_21_454" cx="0" cy="0" r="1" gradientUnits="userSpaceOnUse" gradientTransform="translate(82.4132 51.4562) rotate(90) scale(112.099 77.4242)">
<stop stop-color="white"/>
<stop offset="1" stop-color="white" stop-opacity="0"/>
</radialGradient>
<radialGradient id="paint99_radial_21_454" cx="0" cy="0" r="1" gradientUnits="userSpaceOnUse" gradientTransform="translate(82.404 51.4547) rotate(90) scale(112.099 77.4242)">
<stop stop-color="white"/>
<stop offset="1" stop-color="white" stop-opacity="0"/>
</radialGradient>
<radialGradient id="paint100_radial_21_454" cx="0" cy="0" r="1" gradientUnits="userSpaceOnUse" gradientTransform="translate(82.4101 51.4491) rotate(90) scale(112.099 77.4242)">
<stop stop-color="white"/>
<stop offset="1" stop-color="white" stop-opacity="0"/>
</radialGradient>
<radialGradient id="paint101_radial_21_454" cx="0" cy="0" r="1" gradientUnits="userSpaceOnUse" gradientTransform="translate(82.4083 51.4593) rotate(90) scale(112.099 77.4242)">
<stop stop-color="white"/>
<stop offset="1" stop-color="white" stop-opacity="0"/>
</radialGradient>
<radialGradient id="paint102_radial_21_454" cx="0" cy="0" r="1" gradientUnits="userSpaceOnUse" gradientTransform="translate(82.3987 51.4539) rotate(90) scale(112.099 77.4242)">
<stop stop-color="white"/>
<stop offset="1" stop-color="white" stop-opacity="0"/>
</radialGradient>
<radialGradient id="paint103_radial_21_454" cx="0" cy="0" r="1" gradientUnits="userSpaceOnUse" gradientTransform="translate(82.4048 51.452) rotate(90) scale(112.099 77.4242)">
<stop stop-color="white"/>
<stop offset="1" stop-color="white" stop-opacity="0"/>
</radialGradient>
<radialGradient id="paint104_radial_21_454" cx="0" cy="0" r="1" gradientUnits="userSpaceOnUse" gradientTransform="translate(82.4187 51.4582) rotate(90) scale(112.099 77.4242)">
<stop stop-color="white"/>
<stop offset="1" stop-color="white" stop-opacity="0"/>
</radialGradient>
<radialGradient id="paint105_radial_21_454" cx="0" cy="0" r="1" gradientUnits="userSpaceOnUse" gradientTransform="translate(82.4103 51.4567) rotate(90) scale(112.099 77.4242)">
<stop stop-color="white"/>
<stop offset="1" stop-color="white" stop-opacity="0"/>
</radialGradient>
<radialGradient id="paint106_radial_21_454" cx="0" cy="0" r="1" gradientUnits="userSpaceOnUse" gradientTransform="translate(82.4129 51.4551) rotate(90) scale(112.099 77.4242)">
<stop stop-color="white"/>
<stop offset="1" stop-color="white" stop-opacity="0"/>
</radialGradient>
<radialGradient id="paint107_radial_21_454" cx="0" cy="0" r="1" gradientUnits="userSpaceOnUse" gradientTransform="translate(82.4023 51.4536) rotate(90) scale(112.099 77.4242)">
<stop stop-color="white"/>
<stop offset="1" stop-color="white" stop-opacity="0"/>
</radialGradient>
<radialGradient id="paint108_radial_21_454" cx="0" cy="0" r="1" gradientUnits="userSpaceOnUse" gradientTransform="translate(82.4023 51.452) rotate(90) scale(112.099 77.4242)">
<stop stop-color="white"/>
<stop offset="1" stop-color="white" stop-opacity="0"/>
</radialGradient>
<radialGradient id="paint109_radial_21_454" cx="0" cy="0" r="1" gradientUnits="userSpaceOnUse" gradientTransform="translate(82.4023 51.4504) rotate(90) scale(112.099 77.4242)">
<stop stop-color="white"/>
<stop offset="1" stop-color="white" stop-opacity="0"/>
</radialGradient>
<radialGradient id="paint110_radial_21_454" cx="0" cy="0" r="1" gradientUnits="userSpaceOnUse" gradientTransform="translate(82.4023 51.4563) rotate(90) scale(112.099 77.4242)">
<stop stop-color="white"/>
<stop offset="1" stop-color="white" stop-opacity="0"/>
</radialGradient>
<radialGradient id="paint111_radial_21_454" cx="0" cy="0" r="1" gradientUnits="userSpaceOnUse" gradientTransform="translate(82.4025 51.4551) rotate(90) scale(112.099 77.4242)">
<stop stop-color="white"/>
<stop offset="1" stop-color="white" stop-opacity="0"/>
</radialGradient>
<radialGradient id="paint112_radial_21_454" cx="0" cy="0" r="1" gradientUnits="userSpaceOnUse" gradientTransform="translate(82.4023 51.4532) rotate(90) scale(112.099 77.4242)">
<stop stop-color="white"/>
<stop offset="1" stop-color="white" stop-opacity="0"/>
</radialGradient>
<radialGradient id="paint113_radial_21_454" cx="0" cy="0" r="1" gradientUnits="userSpaceOnUse" gradientTransform="translate(82.4023 51.4517) rotate(90) scale(112.099 77.4242)">
<stop stop-color="white"/>
<stop offset="1" stop-color="white" stop-opacity="0"/>
</radialGradient>
<radialGradient id="paint114_radial_21_454" cx="0" cy="0" r="1" gradientUnits="userSpaceOnUse" gradientTransform="translate(82.4023 51.4579) rotate(90) scale(112.099 77.4242)">
<stop stop-color="white"/>
<stop offset="1" stop-color="white" stop-opacity="0"/>
</radialGradient>
<radialGradient id="paint115_radial_21_454" cx="0" cy="0" r="1" gradientUnits="userSpaceOnUse" gradientTransform="translate(82.4023 51.4564) rotate(90) scale(112.099 77.4242)">
<stop stop-color="white"/>
<stop offset="1" stop-color="white" stop-opacity="0"/>
</radialGradient>
<radialGradient id="paint116_radial_21_454" cx="0" cy="0" r="1" gradientUnits="userSpaceOnUse" gradientTransform="translate(82.4023 51.4548) rotate(90) scale(112.099 77.4242)">
<stop stop-color="white"/>
<stop offset="1" stop-color="white" stop-opacity="0"/>
</radialGradient>
<radialGradient id="paint117_radial_21_454" cx="0" cy="0" r="1" gradientUnits="userSpaceOnUse" gradientTransform="translate(82.4023 51.4527) rotate(90) scale(112.099 77.4242)">
<stop stop-color="white"/>
<stop offset="1" stop-color="white" stop-opacity="0"/>
</radialGradient>
<radialGradient id="paint118_radial_21_454" cx="0" cy="0" r="1" gradientUnits="userSpaceOnUse" gradientTransform="translate(82.4023 51.4517) rotate(90) scale(112.099 77.4242)">
<stop stop-color="white"/>
<stop offset="1" stop-color="white" stop-opacity="0"/>
</radialGradient>
<radialGradient id="paint119_radial_21_454" cx="0" cy="0" r="1" gradientUnits="userSpaceOnUse" gradientTransform="translate(82.4204 51.4461) rotate(90) scale(112.099 77.4242)">
<stop stop-color="white"/>
<stop offset="1" stop-color="white" stop-opacity="0"/>
</radialGradient>
<clipPath id="clip0_21_454">
<rect width="165" height="201.106" fill="white" transform="translate(0 -3)"/>
</clipPath>
</defs>
</svg>
