<svg width="29" height="30" viewBox="0 0 29 30" fill="none" xmlns="http://www.w3.org/2000/svg">
<mask id="mask0_21_330" style="mask-type:alpha" maskUnits="userSpaceOnUse" x="0" y="0" width="29" height="30">
<path d="M17.4807 0.241115C21.9834 0.928196 25.988 3.14815 28.9553 6.35788C28.982 6.82633 28.9956 7.29833 28.9956 7.77345C28.9956 17.732 23.0263 26.2832 14.5018 29.9807C13.4232 29.5131 12.3855 28.9673 11.3959 28.3509L11.399 28.3527L20.635 10.8942L14.1625 14.2534L17.4807 0.241115ZM14.5018 0.015625C15.3485 0.015625 16.1834 0.0690579 17.0019 0.174131L5.95529 21.2807L10.9489 19.2135L9.46235 27.0101C3.71709 22.5971 0.0078125 15.6229 0.0078125 7.77345C0.0078125 7.29833 0.021445 6.82613 0.0482968 6.35767C3.65595 2.45538 8.79663 0.015625 14.5018 0.015625Z" fill="url(#paint0_linear_21_330)"/>
</mask>
<g mask="url(#mask0_21_330)">
<path fill-rule="evenodd" clip-rule="evenodd" d="M-26.8047 64.1482H55.8156V-19.2422H-26.8047V64.1482Z" fill="url(#paint1_linear_21_330)"/>
</g>
<defs>
<linearGradient id="paint0_linear_21_330" x1="12.9406" y1="18.2022" x2="16.4636" y2="5.77668" gradientUnits="userSpaceOnUse">
<stop stop-color="#292B70"/>
<stop offset="1" stop-color="#9A4D8E"/>
</linearGradient>
<linearGradient id="paint1_linear_21_330" x1="10.0559" y1="31.3696" x2="19.6622" y2="-3.33007" gradientUnits="userSpaceOnUse">
<stop stop-color="#292B70"/>
<stop offset="1" stop-color="#9A4D8E"/>
</linearGradient>
</defs>
</svg>
