<svg width="146" height="48" viewBox="0 0 146 48" fill="none" xmlns="http://www.w3.org/2000/svg">
<g clip-path="url(#clip0_77_1008)">
<mask id="mask0_77_1008" style="mask-type:alpha" maskUnits="userSpaceOnUse" x="0" y="9" width="29" height="30">
<path d="M17.4807 9.24111C21.9834 9.9282 25.988 12.1482 28.9554 15.3579C28.982 15.8263 28.9956 16.2983 28.9956 16.7734C28.9956 26.732 23.0263 35.2832 14.5018 38.9807C13.4232 38.5131 12.3855 37.9673 11.3959 37.3509L11.399 37.3527L20.635 19.8942L14.1625 23.2534L17.4807 9.24111ZM14.5018 9.01562C15.3485 9.01562 16.1834 9.06906 17.0019 9.17413L5.95529 30.2807L10.9489 28.2135L9.46235 36.0101C3.71709 31.5971 0.0078125 24.6229 0.0078125 16.7734C0.0078125 16.2983 0.021445 15.8261 0.0482968 15.3577C3.65595 11.4554 8.79663 9.01562 14.5018 9.01562Z" fill="url(#paint0_linear_77_1008)"/>
</mask>
<g mask="url(#mask0_77_1008)">
<path fill-rule="evenodd" clip-rule="evenodd" d="M-26.8047 73.1482H55.8156V-10.2422H-26.8047V73.1482Z" fill="url(#paint1_linear_77_1008)"/>
</g>
</g>
<path d="M45.54 32V20.12H46.992V22.98L46.706 22.606C46.838 22.254 47.0103 21.9313 47.223 21.638C47.4357 21.3373 47.6667 21.0917 47.916 20.901C48.224 20.6297 48.5833 20.4243 48.994 20.285C49.4047 20.1383 49.819 20.054 50.237 20.032C50.655 20.0027 51.0363 20.032 51.381 20.12V21.638C50.9483 21.528 50.4753 21.5023 49.962 21.561C49.4487 21.6197 48.9757 21.825 48.543 22.177C48.147 22.485 47.85 22.8553 47.652 23.288C47.454 23.7133 47.322 24.168 47.256 24.652C47.19 25.1287 47.157 25.6017 47.157 26.071V32H45.54ZM58.0107 32.297C57.2994 32.297 56.6761 32.187 56.1407 31.967C55.6127 31.747 55.1617 31.45 54.7877 31.076C54.4211 30.702 54.1241 30.2767 53.8967 29.8C53.6694 29.316 53.5044 28.8063 53.4017 28.271C53.2991 27.7283 53.2477 27.1893 53.2477 26.654V20.12H54.8757V26.181C54.8757 26.8337 54.9381 27.4387 55.0627 27.996C55.1874 28.5533 55.3854 29.041 55.6567 29.459C55.9354 29.8697 56.2911 30.1887 56.7237 30.416C57.1637 30.6433 57.6954 30.757 58.3187 30.757C58.8907 30.757 59.3931 30.658 59.8257 30.46C60.2657 30.262 60.6324 29.9797 60.9257 29.613C61.2264 29.239 61.4537 28.788 61.6077 28.26C61.7617 27.7247 61.8387 27.1233 61.8387 26.456L62.9827 26.709C62.9827 27.9263 62.7701 28.9493 62.3447 29.778C61.9194 30.6067 61.3327 31.2337 60.5847 31.659C59.8367 32.0843 58.9787 32.297 58.0107 32.297ZM62.0037 32V29.074H61.8387V20.12H63.4557V32H62.0037ZM70.9632 32.319C69.5699 32.319 68.4222 32.0183 67.5202 31.417C66.6256 30.8157 66.0756 29.9797 65.8702 28.909L67.5202 28.634C67.6962 29.3087 68.0959 29.8477 68.7192 30.251C69.3499 30.647 70.1272 30.845 71.0512 30.845C71.9532 30.845 72.6646 30.658 73.1852 30.284C73.7059 29.9027 73.9662 29.3857 73.9662 28.733C73.9662 28.3663 73.8819 28.0693 73.7132 27.842C73.5519 27.6073 73.2182 27.391 72.7122 27.193C72.2062 26.995 71.4509 26.7603 70.4462 26.489C69.3682 26.1957 68.5249 25.9023 67.9162 25.609C67.3076 25.3157 66.8749 24.9783 66.6182 24.597C66.3616 24.2083 66.2332 23.7353 66.2332 23.178C66.2332 22.5033 66.4239 21.913 66.8052 21.407C67.1866 20.8937 67.7146 20.4977 68.3892 20.219C69.0639 19.933 69.8486 19.79 70.7432 19.79C71.6379 19.79 72.4372 19.9367 73.1412 20.23C73.8526 20.516 74.4246 20.9193 74.8572 21.44C75.2899 21.9607 75.5466 22.5657 75.6272 23.255L73.9772 23.552C73.8672 22.8553 73.5189 22.3053 72.9322 21.902C72.3529 21.4913 71.6159 21.2787 70.7212 21.264C69.8779 21.242 69.1922 21.4033 68.6642 21.748C68.1362 22.0853 67.8722 22.5363 67.8722 23.101C67.8722 23.4163 67.9676 23.6877 68.1582 23.915C68.3489 24.135 68.6936 24.344 69.1922 24.542C69.6982 24.74 70.4169 24.9563 71.3482 25.191C72.4409 25.4697 73.2989 25.763 73.9222 26.071C74.5456 26.379 74.9892 26.742 75.2532 27.16C75.5172 27.578 75.6492 28.095 75.6492 28.711C75.6492 29.833 75.2312 30.7167 74.3952 31.362C73.5666 32 72.4226 32.319 70.9632 32.319ZM82.6318 32.297C81.9205 32.297 81.2972 32.187 80.7618 31.967C80.2338 31.747 79.7828 31.45 79.4088 31.076C79.0422 30.702 78.7452 30.2767 78.5178 29.8C78.2905 29.316 78.1255 28.8063 78.0228 28.271C77.9202 27.7283 77.8688 27.1893 77.8688 26.654V20.12H79.4968V26.181C79.4968 26.8337 79.5592 27.4387 79.6838 27.996C79.8085 28.5533 80.0065 29.041 80.2778 29.459C80.5565 29.8697 80.9122 30.1887 81.3448 30.416C81.7848 30.6433 82.3165 30.757 82.9398 30.757C83.5118 30.757 84.0142 30.658 84.4468 30.46C84.8868 30.262 85.2535 29.9797 85.5468 29.613C85.8475 29.239 86.0748 28.788 86.2288 28.26C86.3828 27.7247 86.4598 27.1233 86.4598 26.456L87.6038 26.709C87.6038 27.9263 87.3912 28.9493 86.9658 29.778C86.5405 30.6067 85.9538 31.2337 85.2058 31.659C84.4578 32.0843 83.5998 32.297 82.6318 32.297ZM86.6248 32V29.074H86.4598V20.12H88.0768V32H86.6248ZM95.7603 32.33C94.653 32.33 93.707 32.055 92.9223 31.505C92.1377 30.9477 91.5363 30.196 91.1183 29.25C90.7003 28.304 90.4913 27.237 90.4913 26.049C90.4913 24.8683 90.6967 23.805 91.1073 22.859C91.5253 21.913 92.123 21.165 92.9003 20.615C93.6777 20.065 94.609 19.79 95.6943 19.79C96.809 19.79 97.7477 20.0613 98.5103 20.604C99.273 21.1467 99.8487 21.891 100.237 22.837C100.633 23.7757 100.831 24.8463 100.831 26.049C100.831 27.2297 100.637 28.2967 100.248 29.25C99.8597 30.196 99.2877 30.9477 98.5323 31.505C97.777 32.055 96.853 32.33 95.7603 32.33ZM95.9253 30.823C96.7687 30.823 97.4653 30.6177 98.0153 30.207C98.5653 29.7963 98.976 29.2317 99.2473 28.513C99.5187 27.787 99.6543 26.9657 99.6543 26.049C99.6543 25.1177 99.5187 24.2963 99.2473 23.585C98.976 22.8663 98.5653 22.3053 98.0153 21.902C97.4727 21.4987 96.787 21.297 95.9583 21.297C95.1077 21.297 94.4037 21.506 93.8463 21.924C93.289 22.342 92.8747 22.9103 92.6033 23.629C92.3393 24.3477 92.2073 25.1543 92.2073 26.049C92.2073 26.951 92.343 27.765 92.6143 28.491C92.893 29.2097 93.3073 29.778 93.8573 30.196C94.4073 30.614 95.0967 30.823 95.9253 30.823ZM99.6543 32V23.057H99.4783V16.16H101.106V32H99.6543ZM109.219 32.33C108.061 32.33 107.056 32.0733 106.205 31.56C105.362 31.0467 104.706 30.3243 104.236 29.393C103.767 28.4617 103.532 27.369 103.532 26.115C103.532 24.817 103.763 23.695 104.225 22.749C104.687 21.803 105.336 21.0733 106.172 20.56C107.016 20.0467 108.009 19.79 109.153 19.79C110.327 19.79 111.328 20.0613 112.156 20.604C112.985 21.1393 113.612 21.9093 114.037 22.914C114.463 23.9187 114.657 25.1177 114.62 26.511H112.97V25.939C112.941 24.399 112.607 23.2367 111.969 22.452C111.339 21.6673 110.415 21.275 109.197 21.275C107.921 21.275 106.942 21.6893 106.26 22.518C105.586 23.3467 105.248 24.5273 105.248 26.06C105.248 27.556 105.586 28.7183 106.26 29.547C106.942 30.3683 107.907 30.779 109.153 30.779C110.004 30.779 110.745 30.5847 111.375 30.196C112.013 29.8 112.516 29.2317 112.882 28.491L114.389 29.074C113.92 30.108 113.227 30.911 112.31 31.483C111.401 32.0477 110.371 32.33 109.219 32.33ZM104.676 26.511V25.158H113.751V26.511H104.676ZM130.907 32L130.918 24.201C130.918 23.2843 130.662 22.5657 130.148 22.045C129.642 21.517 128.997 21.253 128.212 21.253C127.765 21.253 127.329 21.3557 126.903 21.561C126.478 21.7663 126.126 22.0963 125.847 22.551C125.576 23.0057 125.44 23.5997 125.44 24.333L124.483 24.058C124.461 23.2073 124.626 22.463 124.978 21.825C125.338 21.187 125.829 20.692 126.452 20.34C127.083 19.9807 127.794 19.801 128.586 19.801C129.782 19.801 130.739 20.1713 131.457 20.912C132.176 21.6453 132.535 22.639 132.535 23.893L132.524 32H130.907ZM116.728 32V20.12H118.18V23.046H118.356V32H116.728ZM123.834 32L123.845 24.311C123.845 23.365 123.592 22.6207 123.086 22.078C122.588 21.528 121.928 21.253 121.106 21.253C120.285 21.253 119.621 21.5353 119.115 22.1C118.609 22.6573 118.356 23.4017 118.356 24.333L117.388 23.805C117.388 23.0423 117.568 22.3603 117.927 21.759C118.287 21.1503 118.778 20.6737 119.401 20.329C120.025 19.977 120.732 19.801 121.524 19.801C122.28 19.801 122.951 19.9623 123.537 20.285C124.131 20.6077 124.597 21.077 124.934 21.693C125.272 22.309 125.44 23.057 125.44 23.937L125.429 32H123.834ZM136.652 37.28L138.951 31.043L138.984 32.891L133.781 20.12H135.497L139.765 30.801H139.061L142.999 20.12H144.649L138.269 37.28H136.652Z" fill="white"/>
<defs>
<linearGradient id="paint0_linear_77_1008" x1="12.9406" y1="27.2022" x2="16.4636" y2="14.7767" gradientUnits="userSpaceOnUse">
<stop stop-color="#292B70"/>
<stop offset="1" stop-color="#9A4D8E"/>
</linearGradient>
<linearGradient id="paint1_linear_77_1008" x1="10.0559" y1="40.3696" x2="19.6622" y2="5.66993" gradientUnits="userSpaceOnUse">
<stop stop-color="#292B70"/>
<stop offset="1" stop-color="#9A4D8E"/>
</linearGradient>
<clipPath id="clip0_77_1008">
<rect width="29" height="30" fill="white" transform="translate(0 9)"/>
</clipPath>
</defs>
</svg>
